<svg enable-background="new 0 0 100 100" height="512" viewBox="0 0 100 100" width="512" xmlns="http://www.w3.org/2000/svg"><path d="m91.8249283 32.8443604h-68.2269344c-.0572701 0-.1138439-.0023537-.1709595-.0065804-.8116531-.0599899-7.5486193-.4094353-10.3056612 4.2563553-2.9361067 4.9688644-5.2699556 16.487587-5.6464529 18.9720192-.220048 1.4524231-.1827683 3.8568954-.1139216 5.6038475.04739 1.2009621 1.0383382 2.1465454 2.2402272 2.1412773l82.2334976-.3604012c1.2289047-.0053864 2.2223206-1.0031624 2.2223206-2.2321053v-26.142292c.0000009-1.2327613-.9993582-2.2321204-2.2321158-2.2321204z" fill="#de594e"/><g fill="#344d5b"><path d="m21.600584 35.6442757c-2.4571877.203125-6.9070778 1.1130333-8.048686 4.9859619-1.0453625 3.5488014-1.9893064 9.2176361-2.3771496 11.699234-.0818901.5243225.4569988.9246292.9362259.6966515l9.8309107-4.6768074c.2300053-.1094246.3765736-.3414383.3765736-.59618v-11.4509735c0-.3876686-.3315754-.6898194-.7178746-.6578865z"/><path d="m31.3445873 35.4741096c-3.4529991.0496063-6.032753.0875244-7.273386.1065865-.3606758.0055389-.649416.2994308-.649416.6601257v10.3590698c0 .4852295.5058556.8046684.9439449.5961227l6.7047043-3.1916962c.0886822-.042202.1856232-.0641022.2838001-.0641022.3646107 0 .6602192-.2955894.6602192-.6602211v-7.1457443c.0000001-.3683356-.301628-.665428-.6698665-.6601409z"/><path d="m41.036953 35.3373795c-2.6204262.0346947-5.0752983.0692139-7.2733841.1016693-.3607521.0053444-.6489525.2993317-.6489525.660141v7.1766777c0 .3649979.2961502.6607399.6612244.660202l7.2722282-.0106926c.3642235-.0005379.6592178-.2959557.6592178-.6601982v-7.2676353c0-.3680268-.3023262-.6650277-.6703338-.6601639z"/><path d="m51.4062538 35.8678398v7.3800049c0 .3699951-.3000488.6599731-.6601562.6599731l-7.2698975.0100098c-.3699951 0-.6700439-.289978-.6700439-.6599731v-7.3000488c0-.3599854.2900391-.6499634.6500244-.6599731.1900635 0 .3800049 0 .5799561-.0100098 0 0 0 .0100098.0100098 0 2.1600342-.0299683 4.4100342-.0499878 6.6900635-.0800171.369995-.0099488.6700438.290039.6700438.6600341z"/><path d="m61.0961952 35.7478447v7.4899902c0 .3599854-.2900391.6599731-.6600342.6599731l-7.2698975.0100098c-.3701172 0-.6601562-.2999878-.6601562-.6599731v-7.4100342c0-.3599854.2900391-.6599731.6501465-.6599731 2.4099121-.0400391 4.8598633-.0599976 7.2799072-.0900269.3599854-.0100097.6600342.2900391.6600342.6600342z"/><path d="m70.7961426 35.6377983v7.5800171c0 .3599854-.3000488.6600342-.6599121.6600342l-7.2800255.0099487c-.3601074 0-.6600342-.289978-.6600342-.6599731v-7.5100098c0-.3599854.2999268-.6599731.6600342-.6599731h.4499512c2.3300743-.0300293 4.6201134-.0499878 6.8200645-.0800171.3698731 0 .6699219.2999878.6699219.6599731z"/><path d="m80.4862061 35.5578423v7.6400146c0 .3699951-.2900391.6599731-.6600342.6599731l-7.2700195.0200195c-.3599854 0-.6599121-.3000488-.6599121-.6700439v-7.5899658c0-.3599854.289917-.6600342.6599121-.6600342 2.6101074-.0299683 5.0600586-.039978 7.2700195-.0599976.3699951.0000001.6600342.3000489.6600342.6600343z"/><path d="m90.7261963 35.5778008v7.6100464c0 .3599854-.2999268.6599731-.6600342.6599731l-7.8200683.0100097c-.3598633 0-.6599121-.289978-.6599121-.6599731v-7.6500244c0-.3599854.3000488-.6600342.6599121-.6600342 3.8901367-.0099487 6.7401123.0500488 7.9001465.0900269.3199462.0100097.579956.2700195.579956.5999756z"/></g><path d="m94.057045 60.4315491-86.6193266.1604042c-.3094254.0005607-.5599604.2515564-.5599604.5609817v2.0963783c0 .310215.25177.5615234.5619669.5609627l86.6193237-.1604042c.3094254-.0005569.559967-.2515564.559967-.5609818v-2.0963783c.000003-.3102149-.2517671-.5615234-.5619706-.5609626z" fill="#ededed"/><circle cx="25.904" cy="62.121" fill="#344d5b" r="5.071"/><circle cx="25.904" cy="62.121" fill="#ededed" r="2.484"/><path d="m34.779457 50.00074h55.945381v10.493735h-55.945381z" fill="#feda6f"/><circle cx="77.406" cy="62.121" fill="#344d5b" r="5.071"/><circle cx="77.406" cy="62.121" fill="#ededed" r="2.484"/><g fill="#4abba4"><path d="m51.182964 45.952942h2.61024v11.746079h-2.61024z" transform="matrix(.707 .707 -.707 .707 52.02 -21.935)"/><path d="m46.107239 45.952942h2.61024v11.746079h-2.61024z" transform="matrix(.707 .707 -.707 .707 50.533 -18.346)"/><path d="m41.031513 45.952942h2.61024v11.746079h-2.61024z" transform="matrix(.707 .707 -.707 .707 49.047 -14.757)"/><path d="m85.403534 46.628574h1.703478v7.665653h-1.703478z" transform="matrix(.707 .707 -.707 .707 60.945 -46.212)"/><path d="m82.091042 46.628574h1.703478v7.665653h-1.703478z" transform="matrix(.707 .707 -.707 .707 59.975 -43.87)"/><path d="m78.778557 46.628574h1.703478v7.665653h-1.703478z" transform="matrix(.707 .707 -.707 .707 59.005 -41.527)"/></g><path d="m57.298851 58.4917488 2.4917488-6.4882851h.9250031l2.6555061 6.4882851h-.9781113l-.7568207-1.9650726h-2.7130432l-.7125587 1.9650726zm1.8721314-2.6643562h2.199646l-.6771545-1.7968941c-.2065392-.5458527-.3599701-.994339-.460289-1.3454552-.0826149.4160309-.1991615.8291092-.3496437 1.2392349z" fill="#344d5b"/><path d="m64.0571136 58.4917488v-6.4882851h2.235054c.5045471 0 .889595.0309792 1.1551437.0929413.3717728.0855675.6889572.2404709.9515533.4647141.3422699.2891541.5982285.6587143.7678833 1.1086731.1696625.4499626.2544861.9640961.2544861 1.542408 0 .4927444-.0575333.9294281-.1726074 1.310051-.1150665.3806229-.2625961.6955948-.4425812.9449158-.179985.2493248-.3769379.4455376-.5908508.5886383s-.4720917.2515335-.7745209.3252983c-.3024368.0737648-.6498642.1106453-1.0422897.1106453h-2.3412704zm.8586121-.7656708h1.3852921c.4278336 0 .7634583-.0398293 1.0068817-.1194954.2434158-.0796661.4374161-.1917877.5819931-.3363647.2035904-.2035904.3621826-.477253.4757767-.8209953.1136017-.3437386.1703949-.7605057.1703949-1.2503014 0-.678627-.1113815-1.2001381-.3341446-1.5645332-.2227707-.3643951-.4934845-.6085548-.812149-.7324791-.2301407-.0885162-.6004333-.1327744-1.1108856-.1327744h-1.3631592v4.9569435z" fill="#344d5b"/><path d="m7.3480806 45.8934212h-1v-5.3994141c0-1.453125 1.1826172-2.6357422 2.6357422-2.6357422h7.0009766v1h-7.0009766c-.9023438 0-1.6357422.7333984-1.6357422 1.6357422z" fill="#344d5b"/><path d="m7.8330112 40.8071098h-1.939209c-.2832031 0-.5128174.2296143-.5128174.5128174v5.9462891c0 .2832031.2296143.5127563.5128174.5127563h1.939209c.2832036 0 .5126958-.2295532.5126958-.5127563v-5.9462891c-.0000001-.2832031-.2294922-.5128174-.5126958-.5128174z" fill="#344d5b"/><path d="m51.4062538 35.8678398v1.6900024c-2.6501465-.6900024-5.1201172-1.4500122-7.3601074-2.2700195 2.1600342-.0299683 4.4100342-.0499878 6.6900635-.0800171.3699951-.0099487.6700439.2900391.6700439.6600342z" fill="#467082"/><path d="m61.0961952 35.7478447v3.8499756c-3-.5-5.8800049-1.0899658-8.5900879-1.7600098v-2c0-.3599854.2900391-.6599731.6501465-.6599731 2.4099121-.0400391 4.8598633-.0599976 7.2799072-.0900269.3599854-.0100097.6600342.2900391.6600342.6600342z" fill="#467082"/><path d="m70.7961426 35.6377983v5.1200562c-2.6398926-.1900024-5.3898926-.5-8.2099571-.9300537-.1300049-.0199585-.2600098-.039978-.3900146-.0599976v-4.0499878c0-.3599854.2999268-.6599731.6600342-.6599731h.4499512c2.3300743-.0300293 4.6201134-.0499878 6.8200645-.0800171.369873 0 .6699218.2999878.6699218.6599731z" fill="#467082"/><path d="m80.4862061 35.5578423v5.4500122c-2.6600342.0899658-5.5400391.0299683-8.5899658-.1700439v-5.2199707c0-.3599854.289917-.6600342.6599121-.6600342 2.6101074-.0299683 5.0600586-.039978 7.2700195-.0599976.3699951 0 .6600342.3000488.6600342.6600342z" fill="#467082"/><path d="m90.7261963 35.5778008v4.1500244c-2.5.6500244-5.5999756 1.0700073-9.1400146 1.2399902v-5.4199829c0-.3599854.3000488-.6600342.6599121-.6600342 3.8901367-.0099487 6.7401123.0500488 7.9001465.0900269.3199462.0100097.579956.2700195.579956.5999756z" fill="#467082"/></svg>