<?xml version="1.0" encoding="iso-8859-1"?>
<!-- Generator: Adobe Illustrator 19.0.0, SVG Export Plug-In . SVG Version: 6.00 Build 0)  -->
<svg version="1.1" id="Capa_1" xmlns="http://www.w3.org/2000/svg" xmlns:xlink="http://www.w3.org/1999/xlink" x="0px" y="0px"
	 viewBox="0 0 466.272 466.272" style="enable-background:new 0 0 466.272 466.272;" xml:space="preserve">
<circle style="fill:#CDDCF0;" cx="249.977" cy="320" r="88.64"/>
<path style="fill:#CB5641;" d="M250.448,8c-57.344,0-104,46.656-104,104c0,28.16,8.264,42.208,28.216,76.168
	c16.848,28.712,32.36,56.264,68.848,119.664c2.08,3.624,5.544,4.016,6.936,4.016s4.856-0.392,6.936-4.024
	c65.368-113.896,58.32-101.688,68.576-119.248c20.736-35.408,28.488-48.656,28.488-76.568C354.448,54.656,307.793,8,250.448,8z
	 M250.448,144.376c-17.856,0-32.384-14.528-32.384-32.376s14.52-32.384,32.384-32.384S282.832,94.144,282.832,112
	S268.305,144.376,250.448,144.376z"/>
<path style="fill:#565656;" d="M177.057,370.136l-62.912,63.184c-1.504,1.504-2.344,3.512-2.328,5.64
	c0,2.144,0.832,4.152,2.36,5.664l11.328,11.304c1.504,1.504,3.504,2.336,5.64,2.336s4.16-0.832,5.656-2.352l62.864-63.128
	C190.833,386.664,183.16,378.984,177.057,370.136z"/>
<path d="M264.32,311.808c3.936-6.864,13.888-24.2,24.36-42.448c-4.224-3.24-8.72-6.144-13.68-8.256l-24.536,42.776
	c-0.12-0.216-11.928-20.784-24.712-43.064c-5,2.048-9.584,4.816-13.856,8c12.768,22.256,24.544,42.776,24.664,42.992
	c3.072,5.36,8.48,8.032,13.88,8.032S261.249,317.168,264.32,311.808z"/>
<path d="M304.801,241.272c46.896-81.72,57.648-92.848,57.648-129.272c0-61.856-50.144-112-112-112s-112,50.144-112,112
	c0,37.008,11.88,49.472,57.36,128.76c-25.256,17.296-41.84,46.32-41.84,79.248c0,17.768,4.912,34.344,13.32,48.616l-58.792,59.04
	c-6.24,6.256-6.232,16.392,0.032,22.632l11.328,11.304c3.12,3.12,7.208,4.672,11.296,4.672c4.104,0,8.2-1.568,11.328-4.696
	l58.72-58.976c14.296,8.456,30.928,13.4,48.76,13.4c53.016,0,96-42.984,96-96C345.961,287.392,329.664,258.624,304.801,241.272z
	 M154.449,112c0-52.936,43.064-96,96-96s96,43.064,96,96c0,31.16-7.968,38.4-55.496,121.288
	c-12.448-5.896-26.312-9.288-40.992-9.288c-14.376,0-27.968,3.248-40.208,8.912C163.536,152.384,154.449,143.776,154.449,112z
	 M131.145,450.264l-11.32-11.312l56.808-57.048c3.448,4.08,7.232,7.864,11.312,11.32L131.145,450.264z M249.961,400
	c-44.112,0-80-35.888-80-80s35.888-80,80-80s80,35.888,80,80S294.073,400,249.961,400z"/>
<path d="M290.448,112c0-22.056-17.936-40-40-40s-40,17.944-40,40s17.936,40,40,40S290.448,134.056,290.448,112z M226.449,112
	c0-13.232,10.768-24,24-24s24,10.768,24,24s-10.768,24-24,24S226.449,125.232,226.449,112z"/>
<path d="M249.961,368v16c35.344,0,64-28.656,64-64h-16C297.961,346.472,276.424,368,249.961,368z"/>
<g>
</g>
<g>
</g>
<g>
</g>
<g>
</g>
<g>
</g>
<g>
</g>
<g>
</g>
<g>
</g>
<g>
</g>
<g>
</g>
<g>
</g>
<g>
</g>
<g>
</g>
<g>
</g>
<g>
</g>
</svg>
