<?xml version="1.0" encoding="iso-8859-1"?>
<!-- Generator: Adobe Illustrator 19.0.0, SVG Export Plug-In . SVG Version: 6.00 Build 0)  -->
<svg version="1.1" id="Capa_1" xmlns="http://www.w3.org/2000/svg" xmlns:xlink="http://www.w3.org/1999/xlink" x="0px" y="0px"
	 viewBox="0 0 466.854 466.854" style="enable-background:new 0 0 466.854 466.854;" xml:space="preserve">
<path style="fill:#CB5641;" d="M250.671,0c-61.856,0-112,50.144-112,112c0,35.952,13.04,51.488,41.568,101.232
	c0,0,56.288,98.096,56.56,98.576c6.144,10.72,21.616,10.72,27.76,0c9.776-17.04,56.56-98.576,56.56-98.576
	c29.712-51.824,41.552-65.952,41.552-101.232C362.671,50.144,312.527,0,250.671,0z"/>
<path style="fill:#565656;" d="M173.585,363.064l-64.72,65.105c-6.255,6.271-6.239,16.425,0.032,22.68l11.356,11.324
	c6.271,6.255,16.425,6.239,22.68-0.032l64.784-65.169L173.585,363.064z"/>
<path style="fill:#454545;" d="M155.949,380.728c8.88,13.904,20.576,25.296,34.016,33.872l17.584-17.696l-34.048-33.84
	L155.949,380.728z"/>
<path style="fill:#DDDDDC;" d="M250.671,224c-53.155,0-96.238,43.082-96.238,96.238c0,53.155,43.082,96.238,96.238,96.238
	s96.238-43.082,96.238-96.238S303.826,224,250.671,224z"/>
<path style="fill:#CCCBCB;" d="M193.961,376.946l0.634-0.634c5.639-5.641,6.586-14.466,2.24-21.158
	c-16.126-24.854-13.306-58.51,8.466-80.283c21.603-21.596,54.892-24.548,79.685-8.854c7.119,4.506,16.422,3.486,22.38-2.471
	c-31.327-31.322-82.086-31.338-113.405-0.016C162.641,294.85,162.641,345.622,193.961,376.946z"/>
<path style="fill:#A5BEE2;" d="M310.909,342.208c-5.936,16.016-17.744,28.784-33.264,35.92c-8.496,3.888-17.456,5.872-26.656,5.872
	c-24.944,0-47.792-14.64-58.192-37.28c-7.136-15.52-7.808-32.896-1.872-48.928c5.936-16.032,17.744-28.784,33.264-35.92
	c8.48-3.888,17.456-5.872,26.656-5.872c24.928,0,47.776,14.64,58.176,37.28C316.173,308.8,316.829,326.176,310.909,342.208z"/>
<path style="fill:#823F3B;" d="M250.845,256c-9.2,0-18.176,1.984-26.656,5.888c-4.224,1.936-8.096,4.368-11.728,7.088
	c12.736,22.192,24.448,42.624,24.576,42.832c6.144,10.72,21.616,10.72,27.76,0c3.952-6.896,14-24.384,24.528-42.736
	C278.397,260.848,265.005,256,250.845,256z"/>
<circle style="fill:#C1D3EC;" cx="258.909" cy="327.993" r="24"/>
<path style="fill:#5E80AC;" d="M203.245,336.336c0-35.296,28.704-64,64-64c13.488,0,25.968,4.24,36.288,11.376
	C291.965,267.008,272.717,256,250.909,256c-35.296,0-64,28.704-64,64c0,21.808,11.008,41.056,27.712,52.624
	C207.469,362.288,203.245,349.808,203.245,336.336z"/>
<path style="fill:#492B2B;" d="M212.541,269.104c4.096,7.136,8.08,14.08,11.6,20.224c11.392-10.464,26.448-17.008,43.104-17.008
	c6.48,0,12.704,1.024,18.576,2.832c1.168-2.032,2.336-4.064,3.52-6.128C278.637,260.912,265.357,256,250.909,256
	C236.461,256,223.261,261.008,212.541,269.104z"/>
<path style="fill:#C09899;" d="M258.909,304c-8.24,0-15.504,4.16-19.824,10.48c7.008,7.856,20.144,7.024,25.696-2.672
	c0.848-1.472,2.064-3.584,3.408-5.936C265.341,304.672,262.205,304,258.909,304z"/>
<circle style="fill:#823F3B;" cx="250.669" cy="111.993" r="32"/>
<g>
</g>
<g>
</g>
<g>
</g>
<g>
</g>
<g>
</g>
<g>
</g>
<g>
</g>
<g>
</g>
<g>
</g>
<g>
</g>
<g>
</g>
<g>
</g>
<g>
</g>
<g>
</g>
<g>
</g>
</svg>
