<svg height="361pt" viewBox="0 -40 361.33035 361" width="361pt" xmlns="http://www.w3.org/2000/svg"><path d="m211.625 20.644531v163.839844h122.882812v-86.6875l-46.828124-77.152344zm0 0" fill="#ddd"/><path d="m334.507812 191.3125h-122.882812c-3.769531 0-6.824219-3.058594-6.824219-6.828125v-163.839844c0-3.769531 3.054688-6.824219 6.824219-6.824219h76.054688c2.386718 0 4.59375 1.242188 5.835937 3.28125l46.828125 77.152344c.648438 1.066406.988281 2.292969.988281 3.542969v86.6875c0 3.769531-3.054687 6.828125-6.824219 6.828125zm-116.054687-13.652344h109.226563v-77.957031l-43.84375-72.230469h-65.382813zm0 0"/><path d="m354.503906 231.445312h-347.679687v-46.960937h347.679687zm0 0" fill="#99783d"/><path d="m354.503906 238.273438h-347.675781c-3.773437 0-6.828125-3.058594-6.828125-6.828126v-46.960937c0-3.769531 3.054688-6.824219 6.828125-6.824219h347.675781c3.769532 0 6.828125 3.054688 6.828125 6.824219v46.960937c-.003906 3.769532-3.058593 6.828126-6.828125 6.828126zm-340.851562-13.652344h334.023437v-33.308594h-334.023437zm0 0"/><path d="m238.933594 47.953125v68.265625h68.265625l-40.960938-68.265625zm0 0" fill="#26bbec"/><path d="m307.199219 123.046875h-68.265625c-3.769532 0-6.828125-3.058594-6.828125-6.828125v-68.265625c0-3.769531 3.058593-6.828125 6.828125-6.828125h27.304687c2.398438 0 4.621094 1.257812 5.855469 3.3125l40.960938 68.265625c1.265624 2.109375 1.300781 4.738281.085937 6.878906-1.210937 2.140625-3.480469 3.464844-5.941406 3.464844zm-61.4375-13.65625h49.382812l-32.769531-54.613281h-16.613281zm0 0"/><path d="m122.878906 239.246094c0 19.101562-15.480468 34.582031-34.582031 34.582031-19.097656 0-34.582031-15.480469-34.582031-34.582031 0-19.097656 15.484375-34.582032 34.582031-34.582032 19.101563 0 34.582031 15.484376 34.582031 34.582032zm0 0" fill="#777"/><path d="m88.300781 280.65625c-22.835937 0-41.410156-18.578125-41.410156-41.410156 0-22.835938 18.574219-41.40625 41.410156-41.40625 22.832031 0 41.40625 18.570312 41.40625 41.40625 0 22.832031-18.574219 41.410156-41.40625 41.410156zm0-69.164062c-15.308593 0-27.757812 12.449218-27.757812 27.753906 0 15.304687 12.449219 27.757812 27.757812 27.757812 15.300781 0 27.753907-12.453125 27.753907-27.757812 0-15.304688-12.453126-27.753906-27.753907-27.753906zm0 0"/><path d="m307.199219 239.246094c0 19.101562-15.480469 34.582031-34.582031 34.582031-19.097657 0-34.582032-15.480469-34.582032-34.582031 0-19.097656 15.484375-34.582032 34.582032-34.582032 19.101562 0 34.582031 15.484376 34.582031 34.582032zm0 0" fill="#777"/><path d="m272.621094 280.65625c-22.835938 0-41.414063-18.578125-41.414063-41.410156 0-22.835938 18.578125-41.40625 41.414063-41.40625 22.832031 0 41.40625 18.570312 41.40625 41.40625 0 22.832031-18.574219 41.410156-41.40625 41.410156zm0-69.164062c-15.308594 0-27.757813 12.449218-27.757813 27.753906 0 15.304687 12.449219 27.757812 27.757813 27.757812 15.300781 0 27.753906-12.453125 27.753906-27.757812 0-15.304688-12.453125-27.753906-27.753906-27.753906zm0 0"/><path d="m211.625 191.3125h-204.796875c-3.773437 0-6.828125-3.058594-6.828125-6.828125v-177.492187c0-3.769532 3.054688-6.828126 6.828125-6.828126h204.796875c3.773438 0 6.828125 3.058594 6.828125 6.828126v177.492187c0 3.769531-3.054687 6.828125-6.828125 6.828125zm-197.972656-13.652344h191.148437v-163.839844h-191.148437zm0 0"/><path d="m144.316406 57.574219c-31.507812-3.503907-33.257812 28.003906-33.257812 28.003906s-1.75-31.507813-33.257813-28.003906c-31.507812 3.5-24.503906 36.757812-24.503906 36.757812s3.5 33.257813 57.761719 56.011719c54.261718-22.753906 57.761718-56.011719 57.761718-56.011719s7.003907-33.257812-24.503906-36.757812zm0 0" fill="#ee5281"/><path d="m111.058594 157.167969c-.894532 0-1.796875-.175781-2.640625-.53125-54.855469-23.003907-61.269531-56.984375-61.863281-61.207031-.476563-2.527344-3.144532-19.050782 5.875-31.519532 5.421874-7.496094 13.707031-11.910156 24.617187-13.121094 11.226563-1.273437 20.621094 1.207032 27.835937 7.316407 2.511719 2.125 4.539063 4.527343 6.175782 7 1.636718-2.472657 3.667968-4.875 6.175781-7 7.214844-6.105469 16.582031-8.578125 27.835937-7.316407 10.910157 1.210938 19.191407 5.625 24.617188 13.121094 9.019531 12.46875 6.351562 28.988282 5.875 31.519532-.589844 4.222656-7.003906 38.207031-61.863281 61.207031-.84375.355469-1.742188.53125-2.640625.53125zm-28.570313-93.039063c-1.257812 0-2.570312.078125-3.933593.226563-6.992188.777343-11.910157 3.234375-15.027344 7.511719-6.046875 8.289062-3.570313 20.953124-3.542969 21.085937.242187 1.769531 4.269531 29.390625 51.074219 49.957031 47.453125-20.851562 50.945312-49.007812 50.972656-49.296875.027344-.230469.0625-.460937.109375-.6875.023437-.101562 2.496094-12.765625-3.554687-21.0625-3.117188-4.277343-8.03125-6.730469-15.023438-7.507812-7.378906-.8125-13.269531.585937-17.507812 4.167969-7.363282 6.234374-8.171876 17.324218-8.179688 17.433593-.199219 3.617188-3.195312 6.445313-6.816406 6.445313-3.625 0-6.617188-2.828125-6.816406-6.445313-.003907-.078125-.816407-11.261719-8.246094-17.484375-3.445313-2.886718-7.976563-4.34375-13.507813-4.34375zm0 0"/></svg>