<svg height="389pt" viewBox="0 -44 389.12 389" width="389pt" xmlns="http://www.w3.org/2000/svg"><path d="m225.28125 20.539062v163.839844h122.878906v-86.6875l-46.824218-77.152344zm0 0" fill="#d7e9ff"/><path d="m348.160156 191.207031h-122.878906c-3.769531 0-6.828125-3.058593-6.828125-6.828125v-163.839844c0-3.769531 3.058594-6.824218 6.828125-6.824218h76.050781c2.386719 0 4.597657 1.246094 5.835938 3.28125l46.828125 77.152344c.648437 1.070312.992187 2.292968.992187 3.542968v86.6875c0 3.769532-3.058593 6.828125-6.828125 6.828125zm-116.054687-13.652343h109.226562v-77.953126l-43.839843-72.234374h-65.386719zm0 0" fill="#0e65e5"/><path d="m368.160156 231.339844h-347.679687v-46.960938h347.679687zm0 0" fill="#5c9eff"/><path d="m368.15625 238.167969h-347.675781c-3.769531 0-6.828125-3.058594-6.828125-6.828125v-46.960938c0-3.769531 3.058594-6.824218 6.828125-6.824218h347.675781c3.769531 0 6.828125 3.054687 6.828125 6.824218v46.960938c0 3.769531-3.058594 6.828125-6.828125 6.828125zm-340.847656-13.652344h334.023437v-33.308594h-334.023437zm0 0" fill="#0e65e5"/><path d="m252.585938 47.847656v68.265625h68.265624l-40.957031-68.265625zm0 0" fill="#94c1ff"/><path d="m320.851562 122.941406h-68.265624c-3.769532 0-6.824219-3.058594-6.824219-6.828125v-68.265625c0-3.769531 3.054687-6.828125 6.824219-6.828125h27.308593c2.394531 0 4.617188 1.257813 5.851563 3.3125l40.960937 68.265625c1.265625 2.109375 1.300781 4.738282.085938 6.878906-1.210938 2.140626-3.480469 3.464844-5.941407 3.464844zm-61.4375-13.65625h49.382813l-32.769531-54.613281h-16.613282zm0 0" fill="#0e65e5"/><path d="m136.535156 239.140625c0 19.101563-15.484375 34.582031-34.585937 34.582031-19.097657 0-34.582031-15.480468-34.582031-34.582031 0-19.097656 15.484374-34.582031 34.582031-34.582031 19.101562 0 34.585937 15.484375 34.585937 34.582031zm0 0" fill="#d7e9ff"/><path d="m101.953125 280.550781c-22.832031 0-41.410156-18.578125-41.410156-41.410156 0-22.835937 18.578125-41.40625 41.410156-41.40625s41.40625 18.570313 41.40625 41.40625c0 22.832031-18.574219 41.410156-41.40625 41.410156zm0-69.164062c-15.308594 0-27.757813 12.449219-27.757813 27.753906s12.449219 27.757813 27.757813 27.757813c15.304687 0 27.753906-12.453126 27.753906-27.757813s-12.449219-27.753906-27.753906-27.753906zm0 0" fill="#0e65e5"/><path d="m320.851562 239.140625c0 19.101563-15.480468 34.582031-34.582031 34.582031-19.097656 0-34.582031-15.480468-34.582031-34.582031 0-19.097656 15.484375-34.582031 34.582031-34.582031 19.101563 0 34.582031 15.484375 34.582031 34.582031zm0 0" fill="#d7e9ff"/><path d="m286.273438 280.550781c-22.835938 0-41.410157-18.578125-41.410157-41.410156 0-22.835937 18.574219-41.40625 41.410157-41.40625 22.832031 0 41.40625 18.570313 41.40625 41.40625 0 22.832031-18.574219 41.410156-41.40625 41.410156zm0-69.164062c-15.308594 0-27.757813 12.449219-27.757813 27.753906s12.449219 27.757813 27.757813 27.757813c15.304687 0 27.753906-12.453126 27.753906-27.757813s-12.449219-27.753906-27.753906-27.753906zm0 0" fill="#0e65e5"/><path d="m225.28125 191.207031h-204.800781c-3.769531 0-6.828125-3.058593-6.828125-6.828125v-177.492187c0-3.769531 3.058594-6.8281252 6.828125-6.8281252h204.800781c3.769531 0 6.824219 3.0585942 6.824219 6.8281252v177.492187c0 3.769532-3.054688 6.828125-6.824219 6.828125zm-197.972656-13.652343h191.144531v-163.839844h-191.144531zm0 0" fill="#0e65e5"/><path d="m157.96875 57.46875c-31.507812-3.503906-33.257812 28.003906-33.257812 28.003906s-1.75-31.507812-33.257813-28.003906c-31.507813 3.5-24.503906 36.757812-24.503906 36.757812s3.5 33.257813 57.761719 56.011719c54.261718-22.753906 57.761718-56.011719 57.761718-56.011719s7.003906-33.257812-24.503906-36.757812zm0 0" fill="#94c1ff"/><g fill="#0e65e5"><path d="m124.714844 157.0625c-.898438 0-1.800782-.175781-2.640625-.53125-54.859375-23.003906-61.273438-56.984375-61.863281-61.207031-.476563-2.527344-3.148438-19.050781 5.871093-31.519531 5.425781-7.496094 13.707031-11.910157 24.617188-13.121094 11.226562-1.273438 20.625 1.207031 27.835937 7.316406 2.511719 2.125 4.542969 4.527344 6.179688 7 1.636718-2.472656 3.664062-4.875 6.175781-7 7.210937-6.105469 16.578125-8.578125 27.832031-7.316406 10.910156 1.210937 19.195313 5.625 24.617188 13.121094 9.019531 12.46875 6.355468 28.992187 5.875 31.519531-.589844 4.222656-7.003906 38.207031-61.863282 61.207031-.839843.355469-1.742187.53125-2.636718.53125zm-28.570313-93.039062c-1.261719 0-2.574219.078124-3.9375.226562-6.992187.777344-11.910156 3.234375-15.023437 7.511719-6.050782 8.289062-3.574219 20.953125-3.546875 21.085937.242187 1.769532 4.269531 29.394532 51.078125 49.957032 47.449218-20.847657 50.941406-49.007813 50.972656-49.296876.027344-.230468.058594-.460937.109375-.6875.019531-.101562 2.492187-12.765624-3.558594-21.0625-3.117187-4.277343-8.03125-6.730468-15.023437-7.507812-7.378906-.8125-13.269532.585938-17.507813 4.167969-7.363281 6.234375-8.171875 17.324219-8.179687 17.433593-.199219 3.617188-3.191406 6.445313-6.816406 6.445313-3.621094 0-6.617188-2.828125-6.816407-6.445313-.003906-.078124-.816406-11.261718-8.246093-17.484374-3.445313-2.886719-7.976563-4.34375-13.503907-4.34375zm0 0"/><path d="m6.828125 273.125h375.464844v20.480469h-375.464844zm0 0"/><path d="m382.292969 300.433594h-375.464844c-3.773437 0-6.828125-3.058594-6.828125-6.828125v-20.480469c0-3.769531 3.054688-6.824219 6.828125-6.824219h375.464844c3.769531 0 6.828125 3.054688 6.828125 6.824219v20.480469c0 3.769531-3.058594 6.828125-6.828125 6.828125zm-368.640625-13.652344h361.8125v-6.828125h-361.8125zm0 0"/></g><path d="m163.839844 218.511719c-3.769532 0-6.828125-3.054688-6.828125-6.824219v-27.308594c0-3.769531 3.058593-6.824218 6.828125-6.824218 3.769531 0 6.828125 3.054687 6.828125 6.824218v27.308594c0 3.769531-3.058594 6.824219-6.828125 6.824219zm0 0" fill="#fff"/><path d="m177.492188 204.859375h-27.304688c-3.769531 0-6.828125-3.054687-6.828125-6.824219 0-3.773437 3.058594-6.828125 6.828125-6.828125h27.304688c3.769531 0 6.828124 3.054688 6.828124 6.828125 0 3.769532-3.058593 6.824219-6.828124 6.824219zm0 0" fill="#fff"/><path d="m83.761719 88.773438c-1.167969 0-2.347657-.296876-3.429688-.925782-3.253906-1.894531-4.363281-6.074218-2.464843-9.335937 3.652343-6.28125 10.4375-10.183594 17.707031-10.183594 6.089843 0 11.824219 2.679687 15.722656 7.359375 2.417969 2.890625 2.027344 7.199219-.867187 9.613281-2.894532 2.410157-7.199219 2.035157-9.613282-.867187-2.855468-3.421875-8.910156-2.902344-11.148437.945312-1.269531 2.179688-3.554688 3.394532-5.90625 3.394532zm0 0" fill="#fff"/></svg>