<svg id="Layer_1" data-name="Layer 1" xmlns="http://www.w3.org/2000/svg" width="730" height="200" viewBox="0 0 730 200">
  <defs>
    <style>
      .cls-1 {
        fill: #ccc;
      }
    </style>
  </defs>
  <title>concept-haus</title>
  <path class="cls-1" d="M94.43,77.92H79.1a12.92,12.92,0,0,0-3.91-8.41q-3.6-3.65-10.68-3.65-8.67,0-13.27,6.5t-4.6,19.19q0,12,4.81,18.4a15.66,15.66,0,0,0,13.27,6.45q7.73,0,11.26-4.23t3.54-8.35H94.75a27.46,27.46,0,0,1-2.17,9A30,30,0,0,1,87.35,121a23.56,23.56,0,0,1-9.1,6,35.37,35.37,0,0,1-13.11,2.27,36.23,36.23,0,0,1-14-2.54,27.4,27.4,0,0,1-9.78-6.45,33.87,33.87,0,0,1-6-9.14,44,44,0,0,1-3.28-10,53.52,53.52,0,0,1-.9-9.78A49.49,49.49,0,0,1,33,77.78a43.38,43.38,0,0,1,5.66-12.21,27,27,0,0,1,10.7-9.17,35.25,35.25,0,0,1,16-3.44,35.06,35.06,0,0,1,13.8,2.54A22.84,22.84,0,0,1,88.3,62,28.88,28.88,0,0,1,93,70,22.79,22.79,0,0,1,94.43,77.92Z"/>
  <path class="cls-1" d="M149.1,121.21q-7.6,7.67-20.19,7.66t-20.19-7.66q-7.6-7.67-7.61-22t7.61-22q7.61-7.67,20.19-7.66t20.19,7.66q7.6,7.67,7.61,22T149.1,121.21ZM138.52,85.69a12.74,12.74,0,0,0-19.24,0q-3.59,4.4-3.59,13.48t3.59,13.48a12.74,12.74,0,0,0,19.24,0q3.58-4.4,3.59-13.48T138.52,85.69Z"/>
  <path class="cls-1" d="M214.12,128.13H199.85V92.19q0-5.07-2.64-7.82a9.78,9.78,0,0,0-7.4-2.75,12,12,0,0,0-9,3.54q-3.44,3.54-3.43,10.31v32.67H163.06V70.2h14.06v6.13q5.72-6.87,16.49-6.87,9.73,0,15.12,5.07t5.39,14Z"/>
  <path class="cls-1" d="M259.38,107.2H274q-1,9.8-7.54,15.8t-18.18,5.92q-12.48,0-20.14-7.61t-7.66-21.67q0-14.69,7.61-22.41t20-7.72q11,0,17.87,5.71t8,16.39H259.38a11.72,11.72,0,0,0-3.44-7.5,10.68,10.68,0,0,0-7.66-2.75,11.67,11.67,0,0,0-9.57,4.39q-3.54,4.4-3.54,13.48t3.44,13.48A11.23,11.23,0,0,0,248,117a11.75,11.75,0,0,0,7.82-2.59A10.65,10.65,0,0,0,259.38,107.2Z"/>
  <path class="cls-1" d="M319.75,108.78l14.48.32a21.58,21.58,0,0,1-8,14.38q-6.72,5.38-17.81,5.39-12.59,0-20.35-7.56T280.3,99.48q0-14.26,7.88-22.15t20.25-7.88q12.69,0,19.66,8.3t7,21.62v3.06h-40a17.53,17.53,0,0,0,3,10.25q3,4.33,10.1,4.34a12.93,12.93,0,0,0,7.56-2.17A9.56,9.56,0,0,0,319.75,108.78Zm-24.1-16.6H320q-.42-5.72-3.59-8.35a12.14,12.14,0,0,0-8-2.64,12.93,12.93,0,0,0-8.67,3,11.63,11.63,0,0,0-4.09,8Z"/>
  <path class="cls-1" d="M355.71,145.89H341.44V70.2h14.27v6.24a17.7,17.7,0,0,1,6.82-5.07,21.64,21.64,0,0,1,8.93-1.9q12.17,0,18.82,7.72t6.66,22q0,14.06-7,21.88t-18.76,7.82a23.3,23.3,0,0,1-9-1.74,14.52,14.52,0,0,1-6.4-4.81ZM369,81.3q-6.45,0-10,3.81t-3.6,14.06q0,10.26,3.6,14.06T369,117a12,12,0,0,0,9.67-4.39q3.65-4.39,3.65-13.48T378.7,85.69A12,12,0,0,0,369,81.3Z"/>
  <path class="cls-1" d="M434.77,115.87v12a9.78,9.78,0,0,0-1.43.16l-1.64.26a58.64,58.64,0,0,1-7.61.32q-8.35,0-11.84-3.12t-3.49-10.41v-33H400V70.2h8.78V54.13H423V70.2h13V82.14H423V111c0,2.11.37,3.49,1.11,4.12s2.31,1,4.71,1c1.91,0,3.24,0,4-.11A11.56,11.56,0,0,0,434.77,115.87Z"/>
  <path class="cls-1" d="M502.76,128.13H488.27V97.47H457v30.66H442.39v-74H457V84.26h31.29V54.13h14.49Z"/>
  <path class="cls-1" d="M526.76,93.67l20-3.06v-2a7,7,0,0,0-2.22-5.6q-2.22-1.91-8.25-1.9-11,0-11,7.93H511.54q0-19.56,25.16-19.56,24.3,0,24.3,18.59V120a41.87,41.87,0,0,0,.32,5.71l.42,2.43H547.17v-5.81q-6.55,6.55-18,6.55-8.77,0-14.43-4.86t-5.66-13.32Q509.11,96.63,526.76,93.67Zm20,10.89V101.5l-5.6.85-4.49.74-4.49.74c-2.89.49-4.94,1.23-6.13,2.22a5.82,5.82,0,0,0-2.22,4.76,6.42,6.42,0,0,0,.27,1.85,11.35,11.35,0,0,0,1,2.22,5.14,5.14,0,0,0,2.64,2.11,12.08,12.08,0,0,0,4.65.79q7.08,0,11-3.91,3.35-3.39,3.35-9.31Z"/>
  <path class="cls-1" d="M618.76,128.13h-14v-5.5q-6.24,6.24-16.6,6.24-9.31,0-14.48-5.66a20.1,20.1,0,0,1-5.18-14.11V70.2h14.27v36.16q0,10.89,9.94,10.89,5.81,0,8.77-3.59a14.15,14.15,0,0,0,3-9.3V70.2h14.27Z"/>
  <path class="cls-1" d="M674.17,87.22H660.11q0-6.77-10.15-6.77a15.54,15.54,0,0,0-6.55,1.32,4.59,4.59,0,0,0-2.85,4.49q0,3.49,4,4.65,1.28.42,10,1.74t13,3.54a14.34,14.34,0,0,1,8.14,13.53q0,19.13-25.9,19.13a40.14,40.14,0,0,1-10.8-1.3,22,22,0,0,1-7.24-3.28,15,15,0,0,1-4.12-4.71,18.05,18.05,0,0,1-2-5,22.82,22.82,0,0,1-.48-4.81h14.06q0,7.81,11.42,7.82,10.68,0,10.68-6.45a4.3,4.3,0,0,0-.85-2.7,5.92,5.92,0,0,0-2.91-1.8,24.34,24.34,0,0,0-3.65-1c-1.06-.17-2.65-.4-4.76-.68A59.34,59.34,0,0,1,639,103q-12.69-3.71-12.69-15.86a15,15,0,0,1,6.87-13.06q6.87-4.71,17.23-4.7A35.82,35.82,0,0,1,661.2,70.9a20.73,20.73,0,0,1,7,3.49,15.53,15.53,0,0,1,3.8,4.76,18.61,18.61,0,0,1,1.8,4.55A17.39,17.39,0,0,1,674.17,87.22Z"/>
  <path class="cls-1" d="M464.74,7.42h15.42l22.52,39.43H488.35l-15.91-27.2L457,46.85H442.47ZM457,46.85H442.47"/>
  <path class="cls-1" d="M696.79,128.66H681.15V113H696.8Z"/>
  <path class="cls-1" d="M141.33,159.53H149V187.3h-7.68v-2.67h4.57V162.2h-4.57Z"/>
  <path class="cls-1" d="M190,167.58h-3.64q-.68-4.1-5-4.1a5.49,5.49,0,0,0-2.83.71,5,5,0,0,0-1.87,1.93,10.21,10.21,0,0,0-1,2.61,13.77,13.77,0,0,0-.31,3,10.36,10.36,0,0,0,1.52,5.81,5.11,5.11,0,0,0,4.6,2.33,4.71,4.71,0,0,0,3.4-1.18,4.77,4.77,0,0,0,1.45-3H190a7.28,7.28,0,0,1-.23,1.46A8.52,8.52,0,0,1,189,179a6.64,6.64,0,0,1-3.89,3.28,10,10,0,0,1-3.56.59,10.45,10.45,0,0,1-4.06-.75,7.79,7.79,0,0,1-2.83-1.91A10.34,10.34,0,0,1,173,177.5a12.69,12.69,0,0,1-.92-3,17.39,17.39,0,0,1-.23-2.88,17.16,17.16,0,0,1,.28-3.12,12.17,12.17,0,0,1,1-3,9.86,9.86,0,0,1,1.77-2.61,7.73,7.73,0,0,1,2.78-1.79,10.62,10.62,0,0,1,3.9-.68,9.77,9.77,0,0,1,3.59.62,7.48,7.48,0,0,1,2.44,1.46,7.64,7.64,0,0,1,1.45,1.93,8.35,8.35,0,0,1,.75,1.8A10.44,10.44,0,0,1,190,167.58Z"/>
  <path class="cls-1" d="M200,160.77h9.33a7.21,7.21,0,0,1,5,1.69,5.56,5.56,0,0,1-1.88,9.41,4,4,0,0,1,2.32,1.41,4.56,4.56,0,0,1,1,2.75c.08,3.51.32,5.67.72,6.5h-3.64a26.46,26.46,0,0,1-.4-5.69,3.44,3.44,0,0,0-.85-2.57,3.72,3.72,0,0,0-2.66-.82h-5.5v9.08H200Zm3.42,9.86h5a5,5,0,0,0,3.26-.95,3.24,3.24,0,0,0,1.12-2.6,3.12,3.12,0,0,0-1.09-2.57,4.74,4.74,0,0,0-3-.89h-5.29Z"/>
  <path class="cls-1" d="M241.61,182.54H226.9V160.77h14.52v3h-11.1V170H241v3H230.32v6.44h11.29Z"/>
  <path class="cls-1" d="M263.5,177.22h-8.3l-1.55,5.32H250l7-21.77h4.82l7.09,21.77h-3.7Zm-.81-3-3.36-10.82L256,174.27Z"/>
  <path class="cls-1" d="M290.86,163.82h-6.53v18.72h-3.42V163.82h-6.53v-3h16.48Z"/>
  <path class="cls-1" d="M303.79,160.77v21.77h-3.42V160.77Z"/>
  <path class="cls-1" d="M322.61,179.87l5.5-19.09h3.48L325,182.54h-4.94l-6.65-21.77h3.67Z"/>
  <path class="cls-1" d="M355.91,182.54H341.2V160.77h14.52v3h-11.1V170h10.63v3H344.62v6.44h11.29Z"/>
  <path class="cls-1" d="M396.89,167.58h-3.64q-.67-4.1-5-4.1a5.49,5.49,0,0,0-2.83.71,5,5,0,0,0-1.87,1.93,10.21,10.21,0,0,0-1,2.61,13.77,13.77,0,0,0-.31,3,10.44,10.44,0,0,0,1.52,5.81,5.11,5.11,0,0,0,4.6,2.33,4.72,4.72,0,0,0,3.41-1.18,4.77,4.77,0,0,0,1.45-3h3.64a7.28,7.28,0,0,1-.23,1.46,8.85,8.85,0,0,1-.78,1.85,6.64,6.64,0,0,1-3.89,3.28,10,10,0,0,1-3.56.59,10.45,10.45,0,0,1-4.06-.75,7.79,7.79,0,0,1-2.83-1.91,10.21,10.21,0,0,1-1.73-2.72,12.69,12.69,0,0,1-.92-3,17.39,17.39,0,0,1-.23-2.88,17.16,17.16,0,0,1,.28-3.12,12.17,12.17,0,0,1,1-3,9.86,9.86,0,0,1,1.77-2.61,7.73,7.73,0,0,1,2.78-1.79,10.62,10.62,0,0,1,3.9-.68A9.77,9.77,0,0,1,392,161a7.48,7.48,0,0,1,2.44,1.46,7.64,7.64,0,0,1,1.45,1.93,8.35,8.35,0,0,1,.75,1.8A10.65,10.65,0,0,1,396.89,167.58Z"/>
  <path class="cls-1" d="M420.74,182.54H406.9V160.77h3.42v18.72h10.42Z"/>
  <path class="cls-1" d="M433.46,160.77v13.77a5.39,5.39,0,0,0,1.37,4,5.89,5.89,0,0,0,7.56,0,5.34,5.34,0,0,0,1.34-3.93V160.77H447v13.74q0,4.2-2.35,6.28a9,9,0,0,1-6.17,2.08,8.75,8.75,0,0,1-6.13-2.13q-2.33-2.13-2.33-6.39V160.77Z"/>
  <path class="cls-1" d="M473,167h-3.48a4.48,4.48,0,0,0-1.1-2.72,4.65,4.65,0,0,0-3.44-1,5.56,5.56,0,0,0-3.39.85,2.84,2.84,0,0,0-1.12,2.41,2.44,2.44,0,0,0,1.18,2.21,8.08,8.08,0,0,0,2.43.85c1.08.24,2.12.46,3.11.65a17.65,17.65,0,0,1,2.94.85,5,5,0,0,1,2.33,1.79,5.2,5.2,0,0,1,.89,3.13,6.16,6.16,0,0,1-2.19,5q-2.19,1.83-6.42,1.83a9.4,9.4,0,0,1-5.78-1.71A6.15,6.15,0,0,1,456.6,176h3.54c.11,2.59,1.74,3.89,4.91,3.89a6.68,6.68,0,0,0,3.36-.81,2.79,2.79,0,0,0,1.43-2.64,2.49,2.49,0,0,0-1.59-2.49,23.74,23.74,0,0,0-3.9-1,19.88,19.88,0,0,1-4.28-1.2,5.13,5.13,0,0,1-3.11-5.13,5.41,5.41,0,0,1,1.21-3.53,6.62,6.62,0,0,1,3-2.1,11.19,11.19,0,0,1,3.76-.62,9.44,9.44,0,0,1,5.81,1.65A6.12,6.12,0,0,1,473,167Z"/>
  <path class="cls-1" d="M498,163.82h-6.53v18.72H488V163.82h-6.5v-3H498Z"/>
  <path class="cls-1" d="M522.2,182.54H507.49V160.77H522v3H510.9V170h10.63v3H510.91v6.44H522.2Z"/>
  <path class="cls-1" d="M532.49,160.77h9.33a7.21,7.21,0,0,1,5,1.69,5.58,5.58,0,0,1-1.88,9.41,4,4,0,0,1,2.32,1.41,4.56,4.56,0,0,1,1,2.75c.08,3.51.32,5.67.71,6.5h-3.64a26.46,26.46,0,0,1-.4-5.69,3.41,3.41,0,0,0-.86-2.57,3.72,3.72,0,0,0-2.66-.82h-5.5v9.08h-3.42Zm3.42,9.86h5a5,5,0,0,0,3.26-.95,3.24,3.24,0,0,0,1.12-2.6,3.12,3.12,0,0,0-1.09-2.57,4.74,4.74,0,0,0-3-.89h-5.29Z"/>
  <path class="cls-1" d="M572,159.53h7.68v2.67h-4.57v22.42h4.57v2.67H572Z"/>
</svg>
