<svg height="511pt" viewBox="-68 0 511 511.9912" width="511pt" xmlns="http://www.w3.org/2000/svg" xmlns:xlink="http://www.w3.org/1999/xlink"><linearGradient id="a" gradientTransform="matrix(204.800781 0 0 128 85.828125 51.199219)" gradientUnits="userSpaceOnUse" x1=".137208" x2=".86275" y1=".0588" y2="1.2196"><stop offset="0" stop-color="#d3dff2"/><stop offset=".172" stop-color="#d3dff2"/><stop offset=".2" stop-color="#d3dff2"/><stop offset=".2" stop-color="#dae2f2"/><stop offset=".201" stop-color="#ebeaf2"/><stop offset=".201" stop-color="#f6eff2"/><stop offset=".202" stop-color="#fdf2f2"/><stop offset=".205" stop-color="#fff3f2"/><stop offset=".252" stop-color="#fff3f2"/><stop offset=".26" stop-color="#fff3f2"/><stop offset=".26" stop-color="#d3dff2"/><stop offset=".397" stop-color="#d3dff2"/><stop offset=".42" stop-color="#d3dff2"/><stop offset=".42" stop-color="#dae2f2"/><stop offset=".421" stop-color="#ebeaf2"/><stop offset=".421" stop-color="#f6eff2"/><stop offset=".422" stop-color="#fdf2f2"/><stop offset=".425" stop-color="#fff3f2"/><stop offset=".489" stop-color="#fff3f2"/><stop offset=".5" stop-color="#fff3f2"/><stop offset=".5" stop-color="#f8f0f2"/><stop offset=".5" stop-color="#e7e8f2"/><stop offset=".5" stop-color="#dce3f2"/><stop offset=".5" stop-color="#d5e0f2"/><stop offset=".501" stop-color="#d3dff2"/><stop offset=".706" stop-color="#d3dff2"/><stop offset=".74" stop-color="#d3dff2"/><stop offset=".741" stop-color="#fff3f2"/><stop offset=".835" stop-color="#fff3f2"/><stop offset=".85" stop-color="#fff3f2"/><stop offset=".851" stop-color="#d3dff2"/></linearGradient><path d="m276.804688 343.550781c-26.988282 15.363281-57.519532 23.421875-88.574219 23.382813-19.898438.046875-39.664063-3.273438-58.453125-9.8125-32.902344-11.316406-61.789063-31.988282-83.117188-59.476563 6.65625 13.140625 13.910156 26.367188 21.589844 39.507813 32.429688 55.09375 67.984375 108.289062 106.496094 159.316406 0 .085938.085937.085938.085937.171875 3.105469 4.300781 8.089844 6.847656 13.398438 6.847656 5.304687 0 10.289062-2.546875 13.394531-6.847656 26.796875-35.671875 87.980469-120.234375 128.171875-198.996094-14.464844 18.644531-32.472656 34.25-52.992187 45.90625zm0 0" fill="#7fabfa"/><path d="m276.804688 343.550781c-31.234376 52.777344-65.304688 103.824219-102.058594 152.917969-38.511719-51.027344-74.066406-104.222656-106.496094-159.316406 19.042969 10.53125 39.929688 17.308594 61.527344 19.96875 18.789062 6.539062 38.554687 9.859375 58.453125 9.8125 31.054687.039062 61.585937-8.019532 88.574219-23.382813zm0 0" fill="#e3e7f2"/><path d="m367.429688 187.734375c0 98.96875-80.230469 179.199219-179.199219 179.199219-4.351563 0-8.621094-.171875-12.800781-.511719-1.621094-.085937-3.242188-.171875-4.863282-.34375-2.050781-.253906-4.011718-.59375-6.058594-.851563-3.671874-.511718-7.425781-1.023437-11.09375-1.707031-2.390624-.511719-4.695312-1.109375-7.082031-1.707031-3.160156-.765625-6.402343-1.535156-9.472656-2.472656-2.476563-.683594-4.863281-1.621094-7.339844-2.476563-2.902343-.9375-5.800781-1.960937-8.617187-3.070312-2.390625-1.023438-4.78125-2.132813-7.167969-3.242188-2.730469-1.195312-5.378906-2.476562-8.023437-3.839843-2.386719-1.195313-4.605469-2.5625-6.910157-3.839844-2.5625-1.453125-5.035156-2.988282-7.511719-4.609375-2.21875-1.367188-4.351562-2.816407-6.484374-4.351563-2.472657-1.707031-4.777344-3.5-7.167969-5.375-1.960938-1.539062-3.925781-3.160156-5.886719-4.78125l-2.816406-2.304687v-.253907c-53.738282-47.882812-73.5625-123.292968-50.324219-191.410156 23.242187-68.117187 85.023437-115.6875 156.820313-120.738281 4.179687-.34375 8.53125-.511719 12.800781-.511719 55.285156-.003906 107.457031 25.578125 141.308593 69.289063h.257813c1.707031 2.21875 3.328125 4.609375 4.949219 6.910156.855468 1.28125 1.792968 2.476563 2.644531 3.757813 2.902344 4.351562 5.71875 8.875 8.277344 13.566406.425781.851562.855469 1.792968 1.28125 2.644531 2.046875 3.839844 3.925781 7.765625 5.71875 11.777344.765625 1.875 1.449219 3.839843 2.21875 5.71875 1.277343 3.15625 2.472656 6.3125 3.496093 9.554687.683594 2.046875 1.28125 4.183594 1.964844 6.316406.851563 3.242188 1.707032 6.484376 2.472656 9.8125.511719 2.046876.9375 4.179688 1.367188 6.316407.679688 3.667969 1.195312 7.335937 1.707031 11.007812.167969 1.875.511719 3.667969.679688 5.546875.511719 5.628906.855469 11.261719.855469 16.980469zm0 0" fill="#7fabfa"/><path d="m341.828125 187.734375c.046875 94.011719-72.621094 172.046875-166.398437 178.6875-1.621094-.085937-3.242188-.171875-4.863282-.34375-2.050781-.253906-4.011718-.59375-6.058594-.851563-3.671874-.511718-7.425781-1.023437-11.09375-1.707031-2.390624-.511719-4.695312-1.109375-7.082031-1.707031-3.160156-.765625-6.402343-1.535156-9.472656-2.472656-2.476563-.683594-4.863281-1.621094-7.339844-2.476563-2.902343-.9375-5.800781-1.960937-8.617187-3.070312-2.390625-1.023438-4.78125-2.132813-7.167969-3.242188-2.730469-1.195312-5.378906-2.476562-8.023437-3.839843-2.386719-1.195313-4.605469-2.5625-6.910157-3.839844-2.5625-1.453125-5.035156-2.988282-7.511719-4.609375-2.21875-1.367188-4.351562-2.816407-6.484374-4.351563-2.472657-1.707031-4.777344-3.5-7.167969-5.375-1.960938-1.539062-3.925781-3.160156-5.886719-4.78125l-2.816406-2.304687v-.253907c-53.738282-47.882812-73.5625-123.292968-50.324219-191.410156 23.242187-68.117187 85.023437-115.6875 156.820313-120.738281 50.664062 3.621094 97.394531 28.628906 128.511718 68.777344h.253906c1.707032 2.21875 3.328126 4.609375 4.949219 6.910156.855469 1.28125 1.792969 2.476563 2.648438 3.757813 2.898437 4.351562 5.714843 8.875 8.277343 13.566406.425782.851562.851563 1.792968 1.277344 2.644531 2.050782 3.839844 3.925782 7.765625 5.71875 11.777344.769532 1.875 1.449219 3.839843 2.21875 5.71875 1.28125 3.15625 2.472656 6.3125 3.5 9.554687.679688 2.046875 1.277344 4.183594 1.960938 6.316406.855468 3.242188 1.707031 6.484376 2.476562 9.8125.511719 2.046876.9375 4.179688 1.363282 6.316407.683593 3.667969 1.195312 7.335937 1.707031 11.007812.171875 1.875.511719 3.667969.683593 5.546875.511719 5.628906.851563 11.261719.851563 16.980469zm0 0" fill="#e3e7f2"/><path d="m290.628906 93.441406v85.757813h-204.800781v-85.332031c.027344-9.414063 7.652344-17.039063 17.066406-17.066407h34.132813c4.714844 0 8.535156-3.820312 8.535156-8.535156v-8.53125c0-4.714844 3.820312-8.535156 8.53125-8.535156h68.269531c4.710938 0 8.53125 3.820312 8.53125 8.535156v8.53125c0 4.714844 3.820313 8.535156 8.535157 8.535156h34.132812c9.246094.035157 16.796875 7.398438 17.066406 16.640625zm0 0" fill="url(#a)"/><path d="m290.628906 179.199219v76.800781c-.027344 9.414062-7.652344 17.039062-17.066406 17.066406h-170.667969c-9.414062-.027344-17.039062-7.652344-17.066406-17.066406v-76.800781zm0 0" fill="#7fabfa"/><path d="m265.027344 179.199219v76.800781c-.027344 9.414062-7.652344 17.039062-17.066406 17.066406h-145.066407c-9.414062-.027344-17.039062-7.652344-17.066406-17.066406v-76.800781zm0 0" fill="#e3e7f2"/><path d="m102.894531 273.066406h34.132813v25.601563c0 9.425781-7.640625 17.066406-17.066406 17.066406-9.425782 0-17.066407-7.640625-17.066407-17.066406zm0 0" fill="#7fabfa"/><path d="m239.429688 273.066406h34.132812v25.601563c0 9.425781-7.640625 17.066406-17.066406 17.066406-9.425782 0-17.066406-7.640625-17.066406-17.066406zm0 0" fill="#7fabfa"/><path d="m145.5625 230.398438c0 9.425781-7.640625 17.066406-17.066406 17.066406-9.425782 0-17.066406-7.640625-17.066406-17.066406 0-9.425782 7.640624-17.066407 17.066406-17.066407 9.425781 0 17.066406 7.640625 17.066406 17.066407zm0 0" fill="#7fabfa"/><path d="m265.027344 230.398438c0 9.425781-7.640625 17.066406-17.066406 17.066406-9.425782 0-17.066407-7.640625-17.066407-17.066406 0-9.425782 7.640625-17.066407 17.066407-17.066407 9.425781 0 17.066406 7.640625 17.066406 17.066407zm0 0" fill="#7fabfa"/><path d="m68.933594 321.195312v.128907c-8.097656-7.238281 59.5625 28.542969 59.5625 28.542969-57.265625-34.132813-92.78125-95.476563-93.867188-162.132813-.046875-94.011719 72.625-172.050781 166.398438-178.6875h.078125c-4.265625-.308594-8.53125-.511719-12.875-.511719s-8.621094.167969-12.800781.511719c-71.796876 5.050781-133.578126 52.621094-156.820313 120.738281-23.238281 68.117188-3.414063 143.527344 50.324219 191.410156zm8.703125 7.339844c2.390625 1.875 4.695312 3.667969 7.167969 5.375 2.132812 1.535156 4.265624 2.984375 6.484374 4.351563 2.476563 1.621093 4.949219 3.15625 7.511719 4.609375 2.304688 1.277344 4.523438 2.644531 6.910157 3.839844 2.644531 1.363281 5.292968 2.644531 8.023437 3.839843 1.996094.921875 3.984375 1.824219 5.972656 2.703125-17.96875-7.417968-34.601562-17.726562-49.238281-30.515625l1.238281 1.015625c2.003907 1.621094 3.96875 3.242188 5.929688 4.78125zm0 0" fill="#fff"/><path d="m.496094 187.734375c.261718-19.386719 3.269531-38.632813 8.933594-57.175781 6.027343-18.449219 14.8125-35.878906 26.050781-51.703125 17.339843-24.351563 40.242187-44.207031 66.808593-57.914063 26.625-13.585937 56.054688-20.753906 85.941407-20.941406v17.066406c-27.171875.179688-53.921875 6.703125-78.125 19.046875-24.15625 12.449219-44.988281 30.496094-60.746094 52.632813-10.203125 14.367187-18.183594 30.191406-23.671875 46.933594-5.132812 16.886718-7.867188 34.40625-8.125 52.054687zm0 0" fill="#fff"/><g fill="#428dff"><path d="m180.378906 395.777344c.1875.542968.445313 1.058594.765625 1.535156.316407.445312.660157.875 1.027344 1.28125 3.363281 3.296875 8.75 3.296875 12.117187 0 .367188-.40625.707032-.835938 1.023438-1.28125.324219-.476562.582031-.992188.765625-1.535156.246094-.484375.421875-1.003906.511719-1.539063.097656-.5625.152344-1.132812.171875-1.703125-.03125-2.261718-.917969-4.425781-2.472657-6.058594-.804687-.792968-1.761718-1.402343-2.816406-1.792968-2.078125-.855469-4.410156-.855469-6.484375 0-1.058593.390625-2.015625 1-2.816406 1.792968-.773437.8125-1.382813 1.769532-1.792969 2.8125-.4375 1.027344-.667968 2.128907-.683594 3.246094.019532.570313.074219 1.140625.171876 1.703125.09375.535157.265624 1.054688.511718 1.539063zm0 0"/><path d="m18.738281 113.09375c-2.199219.847656-3.917969 2.621094-4.699219 4.84375-.796874 2.21875-.742187 4.648438.144532 6.828125l.851562 1.425781c.339844.464844.734375.882813 1.179688 1.246094.371094.394531.804687.730469 1.277344.988281.5.28125 1.019531.523438 1.554687.726563 2.144531.695312 4.464844.601562 6.546875-.265625.980469-.46875 1.867188-1.117188 2.609375-1.910157 2.152344-2.46875 2.78125-5.917968 1.636719-8.984374-.425782-1.011719-1.039063-1.933594-1.808594-2.714844-.746094-.816406-1.648438-1.480469-2.652344-1.953125-2.097656-.9375-4.480468-1.023438-6.640625-.230469zm0 0"/><path d="m168.046875 501.761719c4.714844 6.429687 12.210937 10.230469 20.183594 10.230469 7.972656 0 15.46875-3.800782 20.179687-10.230469 25.121094-33.433594 87.816406-119.671875 128.640625-199.570313 19.320313-25.046875 31.972657-54.585937 36.761719-85.855468 8.230469-53.972657-7.410156-108.859376-42.855469-150.390626-35.445312-41.527343-87.191406-65.59375-141.789062-65.945312h-.9375c-29.894531.183594-59.328125 7.355469-85.957031 20.941406-26.5625 13.707032-49.460938 33.5625-66.792969 57.914063-1.855469 2.332031-3.535157 4.800781-5.023438 7.382812-1.257812 1.9375-1.675781 4.300781-1.160156 6.554688.515625 2.25 1.921875 4.195312 3.898437 5.390625 3.960938 2.347656 9.066407 1.171875 11.605469-2.671875 1.347657-2.351563 2.875-4.59375 4.574219-6.707031 15.757812-22.144532 36.585938-40.203126 60.75-52.65625 24.195312-12.355469 50.9375-18.886719 78.105469-19.082032h.894531c79.523438.339844 148.273438 55.558594 165.761719 133.136719s-20.925781 156.953125-92.613281 191.378906c-52.902344 25.390625-115.136719 21.847657-164.816407-9.386719-49.679687-31.230468-79.847656-85.78125-79.894531-144.460937l.851562-16.214844c.582032-5.375 1.589844-10.707031 2.339844-16.078125.78125-4.492187-2.046875-8.824218-6.476562-9.914062-2.261719-.542969-4.644532-.128906-6.589844 1.140625-1.945312 1.265625-3.285156 3.28125-3.703125 5.566406-.851563 5.886719-1.925781 11.769531-2.558594 17.691406l-.929687 17.808594c-.035156 41.164063 13.535156 81.1875 38.597656 113.84375 40.804688 80.074219 103.773438 166.671875 128.953125 200.183594zm101.632813-144.8125c9.101562-4.410157 17.832031-9.546875 26.113281-15.359375-31.03125 51.710937-64.75 101.753906-101.027344 149.929687-1.53125 2.074219-3.957031 3.300781-6.535156 3.300781-2.582031 0-5.007813-1.226562-6.539063-3.300781-36.328125-48.253906-70.089844-98.386719-101.152344-150.1875 55.578126 39.042969 127.917969 45.003907 189.140626 15.589844zm0 0"/><path d="m188.230469 460.800781c4.710937 0 8.53125-3.820312 8.53125-8.535156v-25.597656c0-4.714844-3.820313-8.535157-8.53125-8.535157-4.714844 0-8.535157 3.820313-8.535157 8.535157v25.597656c0 4.714844 3.820313 8.535156 8.535157 8.535156zm0 0"/><path d="m222.363281 42.667969h-68.269531c-9.421875 0-17.066406 7.640625-17.066406 17.066406v8.53125h-34.132813c-14.136719 0-25.597656 11.460937-25.597656 25.601563v162.132812c.042969 10.808594 6.875 20.425781 17.066406 24.03125v18.636719c0 14.136719 11.460938 25.597656 25.597657 25.597656 14.140624 0 25.601562-11.460937 25.601562-25.597656v-17.066407h85.332031v17.066407c0 14.136719 11.460938 25.597656 25.601563 25.597656 14.136718 0 25.597656-11.460937 25.597656-25.597656v-18.636719c10.195312-3.605469 17.023438-13.222656 17.070312-24.03125v-162.132812c0-14.140626-11.464843-25.601563-25.601562-25.601563h-34.132812v-8.53125c0-9.425781-7.640626-17.066406-17.066407-17.066406zm-93.867187 256c0 4.710937-3.820313 8.53125-8.535156 8.53125-4.710938 0-8.53125-3.820313-8.53125-8.53125v-17.066407h17.066406zm136.53125 0c0 4.710937-3.820313 8.53125-8.53125 8.53125-4.714844 0-8.535156-3.820313-8.535156-8.53125v-17.066407h17.066406zm8.535156-34.132813h-170.667969c-4.710937 0-8.53125-3.824218-8.53125-8.535156v-68.265625h187.730469v68.265625c0 4.710938-3.820312 8.535156-8.53125 8.535156zm0-179.203125c4.710938 0 8.53125 3.820313 8.53125 8.535157v76.800781h-187.730469v-76.800781c0-4.714844 3.820313-8.535157 8.53125-8.535157h34.132813c9.425781 0 17.066406-7.640625 17.066406-17.066406v-8.53125h68.269531v8.53125c0 9.425781 7.640625 17.066406 17.066407 17.066406zm0 0"/><path d="m128.496094 204.800781c-14.140625 0-25.601563 11.460938-25.601563 25.597657 0 14.140624 11.460938 25.601562 25.601563 25.601562 14.136718 0 25.597656-11.460938 25.597656-25.601562 0-14.136719-11.460938-25.597657-25.597656-25.597657zm0 34.132813c-4.714844 0-8.535156-3.820313-8.535156-8.535156 0-4.710938 3.820312-8.53125 8.535156-8.53125 4.710937 0 8.53125 3.820312 8.53125 8.53125 0 4.714843-3.820313 8.535156-8.53125 8.535156zm0 0"/><path d="m247.960938 204.800781c-14.136719 0-25.597657 11.460938-25.597657 25.597657 0 14.140624 11.460938 25.601562 25.597657 25.601562 14.140624 0 25.601562-11.460938 25.601562-25.601562 0-14.136719-11.460938-25.597657-25.601562-25.597657zm0 34.132813c-4.710938 0-8.53125-3.820313-8.53125-8.535156 0-4.710938 3.820312-8.53125 8.53125-8.53125 4.714843 0 8.535156 3.820312 8.535156 8.53125 0 4.714843-3.820313 8.535156-8.535156 8.535156zm0 0"/><path d="m196.761719 204.800781h-17.066407c-4.710937 0-8.53125 3.820313-8.53125 8.53125 0 4.714844 3.820313 8.535157 8.53125 8.535157h17.066407c4.714843 0 8.535156-3.820313 8.535156-8.535157 0-4.710937-3.820313-8.53125-8.535156-8.53125zm0 0"/><path d="m196.761719 230.398438h-17.066407c-4.710937 0-8.53125 3.820312-8.53125 8.535156 0 4.710937 3.820313 8.53125 8.53125 8.53125h17.066407c4.714843 0 8.535156-3.820313 8.535156-8.53125 0-4.714844-3.820313-8.535156-8.535156-8.535156zm0 0"/><path d="m196.761719 68.265625h-17.066407c-4.710937 0-8.53125 3.820313-8.53125 8.535156 0 4.710938 3.820313 8.53125 8.53125 8.53125h17.066407c4.714843 0 8.535156-3.820312 8.535156-8.53125 0-4.714843-3.820313-8.535156-8.535156-8.535156zm0 0"/></g></svg>