<svg height="511pt" viewBox="-73 0 511 511.87853" width="511pt" xmlns="http://www.w3.org/2000/svg"><path d="m127.464844 228.570312c0 5.050782-4.09375 9.144532-9.140625 9.144532-5.050781 0-9.144531-4.09375-9.144531-9.144532 0-5.046874 4.09375-9.140624 9.144531-9.140624 5.046875 0 9.140625 4.09375 9.140625 9.140624zm0 0"/><path d="m100.035156 301.714844c0 5.050781 4.09375 9.140625 9.144532 9.140625 5.050781 0 9.144531-4.089844 9.144531-9.140625v-18.285156h-18.289063zm0 0"/><path d="m182.324219 384c-41.316407.023438-81.625-12.753906-115.382813-36.570312 33.277344 55.5 69.453125 109.210937 108.378906 160.914062 1.640626 2.222656 4.238282 3.535156 7.003907 3.535156 2.761719 0 5.359375-1.3125 7-3.535156 38.871093-51.621094 75-105.242188 108.246093-160.648438-8.871093 6.226563-18.226562 11.730469-27.980468 16.457032-27.207032 13.140625-57.050782 19.929687-87.265625 19.847656zm9.140625 82.285156c0 5.050782-4.09375 9.144532-9.140625 9.144532-5.050781 0-9.144531-4.09375-9.144531-9.144532v-27.429687c0-5.046875 4.09375-9.140625 9.144531-9.140625 5.046875 0 9.140625 4.09375 9.140625 9.140625zm-.183594-62.171875c-.097656.574219-.28125 1.128907-.546875 1.648438-.199219.582031-.476563 1.132812-.824219 1.644531-.335937.476562-.703125.9375-1.097656 1.371094-3.605469 3.535156-9.375 3.535156-12.980469 0-.394531-.433594-.761719-.894532-1.097656-1.371094-.347656-.511719-.625-1.0625-.824219-1.644531-.261718-.519531-.449218-1.074219-.546875-1.648438-.101562-.605469-.164062-1.214843-.183593-1.828125.015624-1.195312.261718-2.375.730468-3.472656.441406-1.121094 1.09375-2.144531 1.921875-3.019531.859375-.84375 1.886719-1.5 3.015625-1.917969 2.226563-.914062 4.722656-.914062 6.949219 0 1.128906.417969 2.160156 1.074219 3.015625 1.917969 1.671875 1.753906 2.617188 4.074219 2.652344 6.492187-.019532.613282-.082032 1.222656-.183594 1.828125zm0 0"/><path d="m255.464844 228.570312c0 5.050782-4.09375 9.144532-9.140625 9.144532-5.050781 0-9.144531-4.09375-9.144531-9.144532 0-5.046874 4.09375-9.140624 9.144531-9.140624 5.046875 0 9.140625 4.09375 9.140625 9.140624zm0 0"/><path d="m246.324219 301.714844c0 5.050781 4.09375 9.140625 9.140625 9.140625 5.050781 0 9.144531-4.089844 9.144531-9.140625v-18.285156h-18.285156zm0 0"/><path d="m273.75 73.144531h-36.570312c-10.097657 0-18.285157-8.1875-18.285157-18.289062v-9.140625h-73.144531v9.140625c0 10.101562-8.183594 18.289062-18.285156 18.289062h-36.570313c-5.050781 0-9.144531 4.089844-9.144531 9.140625v82.285156h201.144531v-82.285156c0-5.050781-4.09375-9.140625-9.144531-9.140625zm-82.285156 0h-18.285156c-5.050782 0-9.144532-4.09375-9.144532-9.144531s4.09375-9.144531 9.144532-9.144531h18.285156c5.050781 0 9.144531 4.09375 9.144531 9.144531s-4.09375 9.144531-9.144531 9.144531zm0 0"/><path d="m183.300781 0h-.976562c-100.628907.269531-182.019531 81.992188-181.886719 182.617188.136719 100.625 81.75 182.128906 182.375 182.128906s182.238281-81.503906 182.371094-182.128906c.136718-100.625-81.257813-182.347657-181.882813-182.617188zm117.878907 91.429688v164.570312c-.046876 11.582031-7.367188 21.886719-18.285157 25.746094v19.96875c0 15.148437-12.28125 27.429687-27.429687 27.429687-15.148438 0-27.429688-12.28125-27.429688-27.429687v-18.285156h-91.425781v18.285156c0 15.148437-12.28125 27.429687-27.429687 27.429687-15.148438 0-27.429688-12.28125-27.429688-27.429687v-19.96875c-10.917969-3.859375-18.238281-14.164063-18.285156-25.746094v-173.714844c0-15.148437 12.28125-27.429687 27.429687-27.429687h36.570313v-9.140625c0-10.097656 8.1875-18.285156 18.285156-18.285156h73.144531c10.097657 0 18.285157 8.1875 18.285157 18.285156v9.140625h36.570312c15.148438 0 27.429688 12.28125 27.429688 27.429687zm0 0"/><path d="m81.75 256c0 5.050781 4.09375 9.144531 9.144531 9.144531h182.855469c5.050781 0 9.144531-4.09375 9.144531-9.144531v-73.144531h-201.144531zm164.574219-54.855469c15.148437 0 27.425781 12.277344 27.425781 27.425781 0 15.148438-12.277344 27.429688-27.425781 27.429688-15.148438 0-27.429688-12.28125-27.429688-27.429688 0-15.148437 12.28125-27.425781 27.429688-27.425781zm-73.144531 0h18.285156c5.050781 0 9.144531 4.089844 9.144531 9.140625 0 5.050782-4.09375 9.144532-9.144531 9.144532h-18.285156c-5.050782 0-9.144532-4.09375-9.144532-9.144532 0-5.050781 4.09375-9.140625 9.144532-9.140625zm0 27.425781h18.285156c5.050781 0 9.144531 4.09375 9.144531 9.144532 0 5.050781-4.09375 9.140625-9.144531 9.140625h-18.285156c-5.050782 0-9.144532-4.089844-9.144532-9.140625 0-5.050782 4.09375-9.144532 9.144532-9.144532zm-54.855469-27.425781c15.148437 0 27.425781 12.277344 27.425781 27.425781 0 15.148438-12.277344 27.429688-27.425781 27.429688-15.148438 0-27.429688-12.28125-27.429688-27.429688 0-15.148437 12.28125-27.425781 27.429688-27.425781zm0 0"/></svg>