<svg height="511pt" viewBox="-68 1 511 511.9981" width="511pt" xmlns="http://www.w3.org/2000/svg"><path d="m367.429688 187.734375c0 98.96875-80.230469 179.199219-179.199219 179.199219s-179.199219-80.230469-179.199219-179.199219 80.230469-179.199219 179.199219-179.199219 179.199219 80.230469 179.199219 179.199219zm0 0" fill="#f9eab0"/><path d="m367.429688 187.734375c0 70.625-41.484376 134.664063-105.9375 163.535156-64.453126 28.875-139.855469 17.199219-192.558594-29.820312-.167969-1.875-.167969-3.839844-.167969-5.714844.023437-131.949219 106.984375-238.910156 238.933594-238.933594 7.421875 0 14.847656.339844 22.101562 1.023438 24.421875 31.429687 37.667969 70.105469 37.628907 109.910156zm0 0" fill="#f3d55b"/><path d="m290.632812 93.441406v85.757813h-204.800781v-85.332031c.027344-9.414063 7.652344-17.039063 17.066407-17.066407h34.132812c4.710938 0 8.535156-3.820312 8.535156-8.535156v-8.53125c0-4.714844 3.820313-8.535156 8.53125-8.535156h68.265625c4.714844 0 8.535157 3.820312 8.535157 8.535156v8.53125c0 4.714844 3.820312 8.535156 8.53125 8.535156h34.136718c9.242188.035157 16.792969 7.398438 17.066406 16.640625zm0 0" fill="#90bae1"/><path d="m290.632812 93.441406c-110.167968 2.730469-173.398437 29.78125-204.800781 49.152344v-48.726562c.027344-9.414063 7.652344-17.039063 17.066407-17.066407h34.132812c4.710938 0 8.535156-3.820312 8.535156-8.535156v-8.53125c0-4.714844 3.820313-8.535156 8.53125-8.535156h68.265625c4.714844 0 8.535157 3.820312 8.535157 8.535156v8.53125c0 4.714844 3.820312 8.535156 8.53125 8.535156h34.136718c9.242188.035157 16.792969 7.398438 17.066406 16.640625zm0 0" fill="#b0d3f0"/><path d="m290.632812 179.199219v76.800781c-.03125 9.414062-7.65625 17.039062-17.066406 17.066406h-170.667968c-9.414063-.027344-17.039063-7.652344-17.066407-17.066406v-76.800781zm0 0" fill="#c03a2b"/><path d="m102.898438 273.066406h34.132812v25.601563c0 9.425781-7.640625 17.066406-17.066406 17.066406-9.425782 0-17.066406-7.640625-17.066406-17.066406zm0 0" fill="#2c2f38"/><path d="m239.429688 273.066406h34.136718v25.601563c0 9.425781-7.644531 17.066406-17.070312 17.066406-9.425782 0-17.066406-7.640625-17.066406-17.066406zm0 0" fill="#2c2f38"/><path d="m145.566406 230.398438c0 9.425781-7.644531 17.066406-17.070312 17.066406-9.425782 0-17.066406-7.640625-17.066406-17.066406 0-9.425782 7.640624-17.066407 17.066406-17.066407 9.425781 0 17.070312 7.640625 17.070312 17.066407zm0 0" fill="#f0c419"/><path d="m265.03125 230.398438c0 9.425781-7.640625 17.066406-17.066406 17.066406-9.425782 0-17.066406-7.640625-17.066406-17.066406 0-9.425782 7.640624-17.066407 17.066406-17.066407 9.425781 0 17.066406 7.640625 17.066406 17.066407zm0 0" fill="#f0c419"/><path d="m196.765625 221.867188h-17.066406c-4.714844 0-8.535157-3.820313-8.535157-8.535157 0-4.710937 3.820313-8.53125 8.535157-8.53125h17.066406c4.710937 0 8.53125 3.820313 8.53125 8.53125 0 4.714844-3.820313 8.535157-8.53125 8.535157zm0 0" fill="#2c2f38"/><path d="m196.765625 247.464844h-17.066406c-4.714844 0-8.535157-3.820313-8.535157-8.53125 0-4.714844 3.820313-8.535156 8.535157-8.535156h17.066406c4.710937 0 8.53125 3.820312 8.53125 8.535156 0 4.710937-3.820313 8.53125-8.53125 8.53125zm0 0" fill="#2c2f38"/><path d="m196.765625 85.332031h-17.066406c-4.714844 0-8.535157-3.820312-8.535157-8.53125 0-4.714843 3.820313-8.535156 8.535157-8.535156h17.066406c4.710937 0 8.53125 3.820313 8.53125 8.535156 0 4.710938-3.820313 8.53125-8.53125 8.53125zm0 0" fill="#285680"/><path d="m188.230469 0c-71.386719-.0664062-136.621094 40.398438-168.28125 104.382812-31.65625 63.984376-24.246094 140.390626 19.121093 197.101563 6.945313 9.191406 14.742188 17.707031 23.292969 25.425781 5.734375 5.207032 11.804688 10.023438 18.175781 14.421875 64.582032 45.511719 150.800782 45.511719 215.382813 0 6.371094-4.398437 12.441406-9.214843 18.175781-14.421875 57.625-52.050781 77.238282-134.214844 49.335938-206.679687-27.902344-72.464844-97.550782-120.261719-175.203125-120.230469zm0 358.398438c-46.328125.019531-90.667969-18.839844-122.792969-52.222657-2.730469-2.730469-5.292969-5.632812-7.679688-8.53125-2.390624-2.734375-4.609374-5.546875-6.828124-8.535156-52.101563-70.523437-42.285157-169.054687 22.710937-227.914063 64.992187-58.855468 164.011719-58.886718 229.039063-.070312 65.03125 58.816406 74.910156 157.339844 22.851562 227.898438-2.132812 2.988281-4.351562 5.804687-6.738281 8.535156-2.390625 2.898437-5.035157 5.800781-7.683594 8.53125-32.117187 33.457031-76.5 52.351562-122.878906 52.308594zm0 0" fill="#4482c3"/><path d="m329.882812 289.023438h-4.351562c-2.132812 2.988281-4.351562 5.804687-6.738281 8.535156-2.390625 2.898437-5.035157 5.800781-7.683594 8.53125-32.125 33.40625-76.46875 52.292968-122.816406 52.3125-46.347657.015625-90.707031-18.839844-122.855469-52.226563-2.730469-2.730469-5.292969-5.632812-7.679688-8.53125-2.390624-2.734375-4.609374-5.546875-6.828124-8.535156h-4.265626c-2.957031.007813-5.699218 1.546875-7.246093 4.070313-1.546875 2.519531-1.679688 5.660156-.347657 8.304687 40.789063 80.125 103.761719 166.738281 129.023438 200.277344 4.691406 6.433593 12.175781 10.238281 20.136719 10.238281 7.964843 0 15.445312-3.804688 20.140625-10.238281 25.171875-33.453125 87.890625-119.640625 128.679687-199.597657.171875-.339843.429688-.679687.597657-1.023437.515624-1.125.777343-2.347656.769531-3.582031 0-4.714844-3.820313-8.535156-8.535157-8.535156zm0 0" fill="#4482c3"/><g fill="#90bae1"><path d="m188.230469 401.066406c-2.257813-.03125-4.421875-.917968-6.058594-2.472656-.367187-.40625-.707031-.835938-1.023437-1.28125-.324219-.476562-.582032-.992188-.769532-1.535156-.246094-.484375-.417968-1.003906-.511718-1.539063-.09375-.5625-.152344-1.132812-.167969-1.703125.011719-1.117187.242187-2.21875.679687-3.246094.414063-1.042968 1.023438-2 1.792969-2.8125.800781-.792968 1.761719-1.402343 2.816406-1.792968 2.078125-.855469 4.40625-.855469 6.484375 0 1.054688.390625 2.015625 1 2.816406 1.792968 1.558594 1.632813 2.441407 3.796876 2.476563 6.058594-.019531.570313-.078125 1.140625-.171875 1.703125-.09375.535157-.265625 1.054688-.511719 1.539063-.1875.542968-.445312 1.058594-.769531 1.535156-.3125.445312-.65625.875-1.023438 1.28125-1.636718 1.554688-3.800781 2.441406-6.058593 2.472656zm0 0"/><path d="m188.230469 460.800781c-4.710938 0-8.53125-3.820312-8.53125-8.535156v-25.597656c0-4.714844 3.820312-8.535157 8.53125-8.535157 4.714843 0 8.535156 3.820313 8.535156 8.535157v25.597656c0 4.714844-3.820313 8.535156-8.535156 8.535156zm0 0"/></g></svg>