<svg height="496pt" viewBox="0 0 496 496" width="496pt" xmlns="http://www.w3.org/2000/svg" xmlns:xlink="http://www.w3.org/1999/xlink"><linearGradient id="a" gradientUnits="userSpaceOnUse" x1="248" x2="248" y1="496" y2="0"><stop offset="0" stop-color="#9f2fff"/><stop offset="1" stop-color="#0bb1d3"/></linearGradient><path d="m168.015625 285.542969c5.222656 7.898437 7.984375 17.042969 7.984375 26.457031 0 26.472656-21.527344 48-48 48-9.414062 0-18.558594-2.761719-26.449219-7.984375l8.832031-13.34375c5.265626 3.488281 11.351563 5.328125 17.617188 5.328125 17.648438 0 32-14.351562 32-32 0-6.265625-1.839844-12.351562-5.328125-17.617188zm-40.015625-5.542969c6.265625 0 12.359375 1.839844 17.609375 5.320312l8.839844-13.335937c-7.882813-5.222656-17.023438-7.984375-26.449219-7.984375-26.472656 0-48 21.527344-48 48 0 9.414062 2.761719 18.558594 7.984375 26.457031l13.34375-8.832031c-3.488281-5.273438-5.328125-11.359375-5.328125-17.625 0-17.648438 14.351562-32 32-32zm160 56v48h32v-16h-16v-32zm8-48c-20.246094 0-40.023438 7.054688-55.6875 19.871094l10.144531 12.386718c10.726563-8.785156 23.839844-14.210937 37.542969-15.753906v15.496094h16v-15.527344c33.320312 3.703125 59.824219 30.214844 63.527344 63.527344h-15.527344v16h15.496094c-1.542969 13.710938-6.96875 26.816406-15.753906 37.550781l12.378906 10.136719c12.816406-15.664062 19.878906-35.441406 19.878906-55.6875 0-48.519531-39.480469-88-88-88zm8 159.496094v-15.496094h-16v15.527344c-33.320312-3.703125-59.824219-30.214844-63.527344-63.527344h15.527344v-16h-15.496094c1.542969-13.710938 6.96875-26.816406 15.753906-37.550781l-12.378906-10.136719c-12.816406 15.664062-19.878906 35.441406-19.878906 55.6875 0 48.519531 39.480469 88 88 88 20.246094 0 40.023438-7.054688 55.6875-19.871094l-10.144531-12.386718c-10.726563 8.785156-23.832031 14.210937-37.542969 15.753906zm144-367.496094h48v304h-80.40625c-4.144531 62.441406-56.121094 112-119.59375 112-52.910156 0-97.847656-34.464844-113.769531-82.089844l-3.199219-2.285156c-5.335938 2.726562-10.910156 5.03125-16.671875 6.878906l-3.574219 21.496094h-61.5625l-3.574218-21.496094c-5.761719-1.847656-11.335938-4.152344-16.671876-6.878906l-17.71875 12.65625-43.515624-43.527344 12.648437-17.714844c-2.734375-5.335937-5.039063-10.910156-6.886719-16.671874l-21.503906-3.589844v-61.554688l21.496094-3.582031c1.847656-5.769531 4.160156-11.34375 6.886718-16.671875l-12.648437-17.710938 43.511719-43.53125 17.722656 12.65625c5.335938-2.726562 10.910156-5.03125 16.671875-6.878906l3.574219-21.503906h61.5625l3.574218 21.496094c5.761719 1.847656 11.335938 4.152344 16.671876 6.878906l17.71875-12.65625 43.515624 43.527344-12.648437 17.714844c2.144531 4.175781 3.917969 8.550781 5.527344 13.007812 7.160156-4.425781 14.800781-8.113281 22.855469-10.96875v-39h48v32.40625c5.421874.363281 10.792968.953125 16 2.019531v-74.425781h48v96.222656c5.761718 4.34375 11.113281 9.175782 16 14.464844v-150.6875h48v224h16v-288zm-48 236.390625c8.863281 15.402344 14.351562 32.914063 15.59375 51.609375h.40625v-208h-16zm-64-53.390625c5.519531 1.960938 10.886719 4.230469 16 6.945312v-69.945312h-16zm-64-4.585938c5.207031-1.0625 10.574219-1.652343 16-2.015624v-16.398438h-16zm-94.472656 135.769532c-.910156-5.945313-1.527344-11.984375-1.527344-18.183594 0-.070312.007812-.144531.007812-.214844-13.726562 10.304688-30.535156 16.214844-48.007812 16.214844-44.113281 0-80-35.886719-80-80s35.886719-80 80-80c38.769531 0 71.167969 27.726562 78.449219 64.398438 4.039062-4.542969 8.335937-8.855469 13.015625-12.734376-2.089844-6.761718-4.746094-13.273437-8.199219-19.289062l-2.554687-4.453125 10.664062-14.9375-24.359375-24.351563-14.917969 10.664063-4.457031-2.554687c-6.992187-4.007813-14.535156-7.125-22.449219-9.269532l-4.953125-1.34375-3.023437-18.128906h-34.4375l-3.023438 18.121094-4.953125 1.34375c-7.90625 2.144531-15.457031 5.261718-22.449219 9.269531l-4.457031 2.554687-14.917969-10.664062-24.359374 24.351562 10.664062 14.933594-2.554688 4.457032c-4 6.96875-7.117187 14.511718-9.269531 22.441406l-1.335937 4.953125-18.121094 3.015625v34.445312l18.121094 3.015625 1.34375 4.953125c2.152344 7.921875 5.269531 15.472656 9.269531 22.441406l2.554687 4.457032-10.664062 14.933594 24.359375 24.351562 14.917969-10.664062 4.457031 2.554687c6.992187 4.007813 14.535156 7.125 22.449219 9.269531l4.953125 1.34375 3.023437 18.121094h34.4375l3.023438-18.121094 4.953125-1.34375c7.90625-2.144531 15.457031-5.261718 22.449219-9.269531zm14.472656-82.183594c0-35.289062-28.710938-64-64-64s-64 28.710938-64 64 28.710938 64 64 64c19.785156 0 38.574219-9.34375 50.664062-25 2.601563-12.230469 7.121094-23.734375 13.144532-34.289062.101562-1.558594.191406-3.117188.191406-4.710938zm208 64c0-57.34375-46.65625-104-104-104s-104 46.65625-104 104 46.65625 104 104 104 104-46.65625 104-104zm64-8h16v-272h-16zm-16-368h48v48h-16v-23.351562l-72.59375 58.070312-23.40625-23.40625-26.40625 26.40625c1.503906 3.128906 2.40625 6.585938 2.40625 10.28125 0 13.230469-10.769531 24-24 24-3.257812 0-6.351562-.664062-9.175781-1.839844l-41.816407 46.464844c1.847657 3.398438 2.992188 7.238281 2.992188 11.375 0 13.230469-10.769531 24-24 24s-24-10.769531-24-24c0-7.351562 3.390625-13.855469 8.609375-18.257812l-32.167969-85.789063c-.152344.007813-.289062.046875-.441406.046875-5.6875 0-10.855469-2.070312-14.96875-5.390625l-65.582031 40.351563c.351562 1.632812.550781 3.3125.550781 5.039062 0 13.230469-10.769531 24-24 24-10.414062 0-19.214844-6.710938-22.527344-16h-42.945312c-3.3125 9.289062-12.113282 16-22.527344 16-13.230469 0-24-10.769531-24-24s10.769531-24 24-24c10.414062 0 19.214844 6.710938 22.527344 16h42.953125c3.3125-9.289062 12.113281-16 22.527343-16 5.6875 0 10.855469 2.070312 14.96875 5.390625l65.582032-40.351563c-.359375-1.632812-.558594-3.3125-.558594-5.039062 0-13.230469 10.769531-24 24-24s24 10.769531 24 24c0 7.351562-3.390625 13.855469-8.609375 18.257812l32.167969 85.78125c.152344 0 .289062-.039062.441406-.039062 3.257812 0 6.351562.664062 9.183594 1.839844l41.816406-46.464844c-1.847656-3.398438-3-7.238281-3-11.375 0-13.230469 10.769531-24 24-24 3.695312 0 7.152344.902344 10.28125 2.40625l37.71875-37.71875 24.59375 24.59375 56.597656-45.28125h-17.191406zm-416 112c0-4.40625-3.585938-8-8-8s-8 3.59375-8 8 3.585938 8 8 8 8-3.59375 8-8zm88 0c0-4.40625-3.585938-8-8-8s-8 3.59375-8 8 3.585938 8 8 8 8-3.59375 8-8zm96-56c4.414062 0 8-3.59375 8-8s-3.585938-8-8-8-8 3.59375-8 8 3.585938 8 8 8zm56 120c0-4.40625-3.585938-8-8-8s-8 3.59375-8 8 3.585938 8 8 8 8-3.59375 8-8zm72-80c0-4.40625-3.585938-8-8-8s-8 3.59375-8 8 3.585938 8 8 8 8-3.59375 8-8zm0 0" fill="url(#a)"/></svg>