<svg height="464pt" viewBox="0 0 464 464" width="464pt" xmlns="http://www.w3.org/2000/svg"><path d="m112 232c-35.289062 0-64 28.710938-64 64s28.710938 64 64 64c19.785156 0 38.566406-9.351562 50.65625-24.992188 2.601562-12.230468 7.121094-23.742187 13.144531-34.296874.109375-1.558594.199219-3.125.199219-4.710938 0-35.289062-28.710938-64-64-64zm-40.015625 90.457031c-5.214844-7.898437-7.984375-17.042969-7.984375-26.457031 0-26.472656 21.527344-48 48-48 9.414062 0 18.558594 2.769531 26.457031 7.984375l-8.839843 13.34375c-5.265626-3.488281-11.351563-5.328125-17.617188-5.328125-17.648438 0-32 14.351562-32 32 0 6.265625 1.839844 12.351562 5.328125 17.609375zm40.015625 21.542969c-9.414062 0-18.558594-2.769531-26.457031-7.984375l8.839843-13.34375c5.265626 3.488281 11.351563 5.328125 17.617188 5.328125 17.648438 0 32-14.351562 32-32 0-6.265625-1.839844-12.351562-5.328125-17.609375l13.34375-8.839844c5.214844 7.890625 7.984375 17.035157 7.984375 26.449219 0 26.472656-21.527344 48-48 48zm0 0"/><path d="m160.007812 359.785156c-13.726562 10.304688-30.535156 16.214844-48.007812 16.214844-44.113281 0-80-35.886719-80-80s35.886719-80 80-80c38.769531 0 71.167969 27.734375 78.449219 64.398438 4.039062-4.542969 8.335937-8.855469 13.015625-12.734376-2.082032-6.753906-4.746094-13.273437-8.199219-19.289062l-2.554687-4.453125 10.664062-14.929687-24.359375-24.359376-14.925781 10.664063-4.457032-2.554687c-6.96875-4-14.511718-7.125-22.441406-9.269532l-4.953125-1.34375-3.023437-18.128906h-34.4375l-3.023438 18.121094-4.953125 1.34375c-7.921875 2.152344-15.472656 5.269531-22.441406 9.269531l-4.457031 2.554687-14.925782-10.664062-24.359374 24.359375 10.664062 14.925781-2.554688 4.457032c-4 6.96875-7.125 14.511718-9.269531 22.441406l-1.335937 4.953125-18.121094 3.023437v34.4375l18.121094 3.023438 1.34375 4.953125c2.152344 7.921875 5.269531 15.472656 9.269531 22.441406l2.554687 4.457031-10.664062 14.925782 24.359375 24.359374 14.925781-10.664062 4.457032 2.554688c6.96875 4 14.511718 7.125 22.441406 9.269531l4.953125 1.34375 3.023437 18.113281h34.4375l3.023438-18.121094 4.953125-1.34375c7.921875-2.152344 15.472656-5.269531 22.441406-9.269531l1.894531-1.089844c-.917968-5.945312-1.535156-11.984375-1.535156-18.175781 0-.070312.007812-.144531.007812-.214844zm0 0"/><path d="m280 256c-57.34375 0-104 46.65625-104 104s46.65625 104 104 104 104-46.65625 104-104-46.65625-104-104-104zm0 192c-48.519531 0-88-39.480469-88-88 0-20.246094 7.0625-40.023438 19.878906-55.6875l12.378906 10.144531c-8.785156 10.726563-14.210937 23.839844-15.753906 37.542969h15.496094v16h-15.527344c3.703125 33.320312 30.207032 59.824219 63.527344 63.527344v-15.527344h16v15.496094c13.710938-1.542969 26.816406-6.96875 37.542969-15.753906l10.144531 12.378906c-15.664062 12.816406-35.441406 19.878906-55.6875 19.878906zm24-96v16h-32v-48h16v32zm44.121094 63.6875-12.378906-10.144531c8.785156-10.726563 14.210937-23.839844 15.753906-37.542969h-15.496094v-16h15.527344c-3.703125-33.320312-30.207032-59.824219-63.527344-63.527344v15.527344h-16v-15.496094c-13.710938 1.542969-26.816406 6.96875-37.542969 15.753906l-10.144531-12.378906c15.664062-12.816406 35.441406-19.878906 55.6875-19.878906 48.519531 0 88 39.480469 88 88 0 20.246094-7.0625 40.023438-19.878906 55.6875zm0 0"/><path d="m416 0v16h20.6875l-44.6875 44.6875-24-24-37.71875 37.71875c-3.128906-1.503906-6.585938-2.40625-10.28125-2.40625-13.230469 0-24 10.769531-24 24 0 4.136719 1.152344 7.976562 3 11.375l-41.816406 46.464844c-2.832032-1.175782-5.925782-1.839844-9.183594-1.839844-.152344 0-.289062.039062-.441406.039062l-32.167969-85.78125c5.21875-4.402343 8.609375-10.914062 8.609375-18.257812 0-13.230469-10.769531-24-24-24s-24 10.769531-24 24c0 1.878906.265625 3.6875.679688 5.441406l-50.085938 39.636719c-4.066406-3.132813-9.082031-5.078125-14.59375-5.078125-10.414062 0-19.214844 6.710938-22.527344 16h-42.945312c-3.3125-9.289062-12.113282-16-22.527344-16-13.230469 0-24 10.769531-24 24s10.769531 24 24 24c10.414062 0 19.214844-6.710938 22.527344-16h42.953125c3.3125 9.289062 12.113281 16 22.527343 16 13.230469 0 24-10.769531 24-24 0-1.878906-.265624-3.6875-.679687-5.441406l50.085937-39.636719c4.058594 3.132813 9.074219 5.078125 14.585938 5.078125.152344 0 .289062-.039062.441406-.039062l32.167969 85.78125c-5.21875 4.402343-8.609375 10.914062-8.609375 18.257812 0 13.230469 10.769531 24 24 24s24-10.769531 24-24c0-4.136719-1.144531-7.976562-3-11.375l41.816406-46.464844c2.832032 1.175782 5.925782 1.839844 9.183594 1.839844 13.230469 0 24-10.769531 24-24 0-3.695312-.902344-7.152344-2.40625-10.28125l26.40625-26.40625 24 24 56-56v20.6875h16v-48zm-392 120c-4.414062 0-8-3.585938-8-8s3.585938-8 8-8 8 3.585938 8 8-3.585938 8-8 8zm88 0c-4.414062 0-8-3.585938-8-8s3.585938-8 8-8 8 3.585938 8 8-3.585938 8-8 8zm80-72c0-4.414062 3.585938-8 8-8s8 3.585938 8 8-3.585938 8-8 8-8-3.585938-8-8zm56 136c-4.414062 0-8-3.585938-8-8s3.585938-8 8-8 8 3.585938 8 8-3.585938 8-8 8zm72-80c-4.414062 0-8-3.585938-8-8s3.585938-8 8-8 8 3.585938 8 8-3.585938 8-8 8zm0 0"/><path d="m304 176v66.40625c11.335938 2.304688 22.070312 6.242188 32 11.496094v-77.902344zm0 0"/><path d="m240 215.992188v30.976562c10.121094-3.585938 20.839844-5.832031 32-6.570312v-24.40625zm0 0"/><path d="m368 278.609375c18.105469 19.558594 29.726562 45.117187 31.617188 73.390625h.382812v-216h-32zm0 0"/><path d="m432 72h32v280h-32zm0 0"/></svg>