<svg height="512pt" viewBox="0 -19 512.0003 512" width="512pt" xmlns="http://www.w3.org/2000/svg"><path d="m279.484375 233.566406c0 14.460938-11.726563 26.1875-26.1875 26.1875-14.464844 0-26.1875-11.726562-26.1875-26.1875 0-14.464844 11.722656-26.191406 26.1875-26.191406 14.460937 0 26.1875 11.726562 26.1875 26.191406zm0 0" fill="#f5737f"/><path d="m501.894531 382.625c0 14.460938-11.722656 26.1875-26.1875 26.1875-14.464843 0-26.1875-11.726562-26.1875-26.1875 0-14.464844 11.722657-26.191406 26.1875-26.191406 14.464844 0 26.1875 11.726562 26.1875 26.191406zm0 0" fill="#f5737f"/><path d="m475.828125 23.257812c-21.277344-17.457031-52.535156-17.457031-73.816406 0-20.03125 16.429688-28.636719 47.070313-21.164063 71.710938 8.574219 28.292969 34.507813 50.996094 56.503906 69.113281.523438.429688 1.042969.859375 1.570313 1.285157.523437-.425782 1.046875-.855469 1.570313-1.285157 21.671874-17.863281 46.1875-38.210937 55.542968-65.707031 8.59375-25.269531.65625-58.003906-20.207031-75.117188zm0 0" fill="#b0e7f8"/><path d="m465.085938 70.726562c0 14.453126-11.714844 26.167969-26.164063 26.167969-14.453125 0-26.167969-11.714843-26.167969-26.167969 0-14.449218 11.714844-26.164062 26.167969-26.164062 14.449219 0 26.164063 11.714844 26.164063 26.164062zm0 0" fill="#fafafa"/><path d="m150.5 259.371094c-30.585938-25.09375-75.511719-25.09375-106.097656 0-28.792969 23.617187-41.160156 67.65625-30.425782 103.078125 12.324219 40.664062 49.601563 73.292969 81.21875 99.335937.75.617188 1.5 1.234375 2.253907 1.851563.757812-.617188 1.507812-1.234375 2.257812-1.851563 31.15625-25.675781 66.390625-54.921875 79.835938-94.441406 12.355469-36.320312.945312-83.375-29.042969-107.972656zm0 0" fill="#f5737f"/><path d="m135.0625 334.070312c0 20.773438-16.839844 37.609376-37.609375 37.609376-20.773437 0-37.609375-16.835938-37.609375-37.609376 0-20.769531 16.835938-37.609374 37.609375-37.609374 20.769531 0 37.609375 16.839843 37.609375 37.609374zm0 0" fill="#fafafa"/><path d="m252.292969 269.832031c13.527343 23.894531 39.09375 39.011719 66.851562 39.011719 13.945313.207031 13.746094-20.488281 0-20.210938-18.707031 0-36.0625-9.3125-46.523437-24.371093 10.183594-6.433594 16.96875-17.785157 16.96875-30.695313 0-13.515625-7.429688-25.320312-18.414063-31.566406 10.210938-16.378906 28.117188-26.527344 47.96875-26.527344h119.773438c3.257812 0 5.578125-1.597656 8-3.59375 21.535156-17.75 48.335937-39.84375 58.679687-70.25 10.164063-29.871094.117188-66.921875-23.359375-86.1875 0 0 0 0-.003906 0-25.097656-20.589844-61.53125-20.589844-86.628906 0-22.933594 18.8125-33.207031 53.492188-24.429688 82.457032 6.785157 22.394531 22.886719 41.132812 40.5 57.363281h-92.53125c-29.328125 0-55.53125 16.324219-68.53125 42.117187-18.761719 1.378906-33.609375 17.074219-33.609375 36.183594 0 19.679688 15.738282 35.734375 35.289063 36.269531zm138.222656-177.792969c-6.40625-21.132812 1.292969-47.34375 17.90625-60.972656 8.835937-7.246094 19.667969-10.871094 30.5-10.871094s21.664063 3.625 30.5 10.871094c17.027344 13.96875 24.515625 42.105469 17.046875 64.054688-7.832031 23.019531-28.265625 41.15625-47.535156 57.140625-20.375-17.074219-41.382813-37.011719-48.417969-60.222657zm-137.222656 125.441407c8.871093 0 16.085937 7.214843 16.085937 16.085937 0 8.867188-7.214844 16.082032-16.085937 16.082032-8.867188 0-16.082031-7.214844-16.082031-16.082032 0-8.871094 7.214843-16.085937 16.082031-16.085937zm0 0"/><path d="m512 382.625c0-18.484375-13.890625-33.773438-31.777344-36.003906-6.097656-16.019532-15.210937-29.496094-26.609375-39.25-14.527343-12.429688-32.113281-18.734375-52.269531-18.734375-12.972656 0-12.992188 20.207031 0 20.207031 15.878906 0 43.4375 5.632812 58.472656 41.160156-12.070312 5.902344-20.402344 18.304688-20.402344 32.621094 0 13.777344 7.714844 25.78125 19.054688 31.929688-12.316406 23.652343-37.003906 38.976562-64.195312 38.976562h-268.972657c25.75-22.222656 52.265625-49.007812 63.808594-82.933594 14.042969-41.285156.199219-92.460937-32.199219-119.039062-34.453125-28.265625-84.464844-28.265625-118.917968 0-31.636719 25.953125-45.804688 73.820312-33.6875 113.820312 12.910156 42.589844 50.371093 76.121094 84.472656 104.210938 3.511718 2.886718 6.347656 4.148437 10.929687 4.148437h294.5625c36.710938 0 69.859375-21.816406 84.597657-54.96875 18.535156-1.605469 33.132812-17.199219 33.132812-36.144531zm-488.355469-23.109375c-9.691406-31.984375 1.988281-71.679687 27.167969-92.335937 12.988281-10.65625 29.554688-16.523438 46.640625-16.523438s33.648437 5.867188 46.640625 16.523438c25.796875 21.164062 37.167969 63.730468 25.882812 96.90625-12.035156 35.378906-43.566406 62.542968-72.519531 86.457031-30.640625-25.472657-63.027343-55.453125-73.8125-91.027344zm452.0625 39.195313c-8.867187 0-16.085937-7.21875-16.085937-16.085938s7.21875-16.085938 16.085937-16.085938c8.867188 0 16.085938 7.21875 16.085938 16.085938s-7.21875 16.085938-16.085938 16.085938zm0 0"/><path d="m475.191406 70.726562c0-19.996093-16.269531-36.269531-36.269531-36.269531s-36.269531 16.273438-36.269531 36.269531c0 20 16.269531 36.273438 36.269531 36.273438s36.269531-16.273438 36.269531-36.273438zm-52.332031 0c0-8.855468 7.203125-16.058593 16.0625-16.058593 8.855469 0 16.0625 7.203125 16.0625 16.058593 0 8.859376-7.207031 16.0625-16.0625 16.0625-8.859375 0-16.0625-7.203124-16.0625-16.0625zm0 0"/><path d="m353.347656 291.59375c-3.875 3.875-3.875 10.417969 0 14.289062 3.886719 3.886719 10.410156 3.882813 14.296875 0 3.773438-3.769531 3.894531-10.035156.296875-13.960937-3.832031-4.183594-10.570312-4.328125-14.59375-.328125-1.878906 1.878906 1.890625-1.878906 0 0zm0 0"/><path d="m145.167969 334.070312c0-26.308593-21.40625-47.714843-47.714844-47.714843-26.3125 0-47.714844 21.40625-47.714844 47.714843 0 26.3125 21.402344 47.714844 47.714844 47.714844 26.308594 0 47.714844-21.402344 47.714844-47.714844zm-47.714844 27.507813c-15.167969 0-27.507813-12.339844-27.507813-27.507813 0-15.167968 12.339844-27.507812 27.507813-27.507812s27.503906 12.339844 27.503906 27.507812c0 15.167969-12.335937 27.507813-27.503906 27.507813zm0 0"/></svg>