<svg height="682pt" viewBox="-21 -45 682.66581 682" width="682pt" xmlns="http://www.w3.org/2000/svg"><path d="m315.367188 336.039062c16.90625 29.871094 48.867187 48.765626 83.5625 48.765626 17.433593.257812 17.183593-25.609376 0-25.261719-23.382813 0-45.078126-11.640625-58.152344-30.464844 12.726562-8.042969 21.210937-22.230469 21.210937-38.371094 0-16.894531-9.289062-31.648437-23.019531-39.457031 12.765625-20.472656 35.148438-33.160156 59.960938-33.160156h149.714843c4.074219 0 6.972657-1.996094 10-4.492188 26.921875-22.1875 60.421875-49.804687 73.351563-87.808594 12.703125-37.339843.144531-83.652343-29.199219-107.734374 0 0 0 0-.003906 0-31.375-25.738282-76.914063-25.738282-108.285157 0-28.667968 23.515624-41.511718 66.863281-30.539062 103.070312 8.480469 27.992188 28.609375 51.414062 50.625 71.703125h-115.664062c-36.660157 0-69.414063 20.40625-85.664063 52.644531-23.453125 1.726563-42.011719 21.34375-42.011719 45.230469 0 24.601563 19.671875 44.667969 44.113282 45.335937zm172.777343-222.238281c-8.007812-26.417969 1.617188-59.179687 22.382813-76.214843 11.042968-9.058594 24.582031-13.589844 38.125-13.589844 13.539062 0 27.078125 4.53125 38.125 13.589844 21.28125 17.460937 30.644531 52.628906 21.308594 80.066406-9.792969 28.773437-35.332032 51.445312-59.421876 71.425781-25.46875-21.34375-51.726562-46.265625-60.519531-75.277344zm-171.527343 156.800781c11.085937 0 20.105468 9.019532 20.105468 20.105469 0 11.085938-9.019531 20.105469-20.105468 20.105469-11.085938 0-20.105469-9.019531-20.105469-20.105469 0-11.085937 9.019531-20.105469 20.105469-20.105469zm0 0"/><path d="m640 477.03125c0-23.105469-17.363281-42.214844-39.722656-45.003906-7.621094-20.023438-19.015625-36.871094-33.261719-49.0625-18.160156-15.539063-40.140625-23.417969-65.335937-23.417969-16.214844 0-16.242188 25.257813 0 25.257813 19.847656 0 54.296874 7.042968 73.089843 51.449218-15.089843 7.378906-25.503906 22.882813-25.503906 40.777344 0 17.222656 9.644531 32.226562 23.820313 39.914062-15.398438 29.5625-46.257813 48.71875-80.246094 48.71875h-336.214844c32.1875-27.777343 65.332031-61.257812 79.761719-103.667968 17.554687-51.605469.25-115.574219-40.25-148.796875-43.066407-35.332031-105.582031-35.332031-148.648438 0-39.542969 32.441406-57.253906 92.273437-42.109375 142.273437 16.140625 53.238282 62.964844 95.152344 105.59375 130.265625 4.386719 3.609375 7.933594 5.183594 13.660156 5.183594h368.203126c45.886718 0 87.324218-27.269531 105.746093-68.710937 23.167969-2.003907 41.417969-21.496094 41.417969-45.179688zm-610.445312-28.886719c-12.113282-39.980469 2.484374-89.597656 33.960937-115.417969 16.234375-13.320312 36.941406-20.65625 58.300781-20.65625 21.355469 0 42.058594 7.335938 58.300782 20.65625 32.246093 26.453126 46.460937 79.660157 32.351562 121.132813-15.042969 44.222656-54.457031 78.175781-90.648438 108.070313-38.300781-31.839844-78.785156-69.316407-92.265624-113.785157zm565.078124 48.996094c-11.085937 0-20.109374-9.023437-20.109374-20.109375 0-11.082031 9.023437-20.105469 20.109374-20.105469 11.082032 0 20.105469 9.023438 20.105469 20.105469 0 11.085938-9.023437 20.109375-20.105469 20.109375zm0 0"/><path d="m593.988281 87.160156c0-24.996094-20.335937-45.335937-45.335937-45.335937s-45.335938 20.339843-45.335938 45.335937c0 25 20.335938 45.339844 45.335938 45.339844s45.335937-20.339844 45.335937-45.339844zm-65.414062 0c0-11.070312 9.003906-20.074218 20.078125-20.074218 11.066406 0 20.078125 9.003906 20.078125 20.074218 0 11.074219-9.011719 20.078125-20.078125 20.078125-11.074219 0-20.078125-9.003906-20.078125-20.078125zm0 0"/><path d="m441.683594 363.242188c-4.84375 4.84375-4.84375 13.023437 0 17.863281 4.859375 4.855469 13.011718 4.851562 17.871094 0 4.71875-4.714844 4.867187-12.546875.371093-17.453125-4.789062-5.230469-13.210937-5.410156-18.242187-.410156-2.347656 2.347656 2.363281-2.347657 0 0zm0 0"/><path d="m181.460938 416.339844c0-32.886719-26.757813-59.644532-59.644532-59.644532-32.890625 0-59.644531 26.757813-59.644531 59.644532 0 32.890625 26.753906 59.640625 59.644531 59.640625 32.886719 0 59.644532-26.75 59.644532-59.640625zm-59.644532 34.382812c-18.960937 0-34.386718-15.425781-34.386718-34.382812 0-18.960938 15.425781-34.386719 34.386718-34.386719 18.960938 0 34.378906 15.425781 34.378906 34.386719 0 18.957031-15.417968 34.382812-34.378906 34.382812zm0 0"/></svg>