<?xml version="1.0" encoding="iso-8859-1"?>
<!-- Generator: Adobe Illustrator 19.0.0, SVG Export Plug-In . SVG Version: 6.00 Build 0)  -->
<svg version="1.1" id="Capa_1" xmlns="http://www.w3.org/2000/svg" xmlns:xlink="http://www.w3.org/1999/xlink" x="0px" y="0px"
	 viewBox="0 0 480 480" style="enable-background:new 0 0 480 480;" xml:space="preserve">
<g>
	<rect x="144" y="176" style="fill:#656A73;" width="80" height="16"/>
	
		<rect x="360.02" y="174.41" transform="matrix(-0.8321 0.5547 -0.5547 -0.8321 802.9285 220.9289)" style="fill:#656A73;" width="16.001" height="115.205"/>
</g>
<polygon style="fill:#A4A5A6;" points="182.4,88 480,88 480,184 248,232 "/>
<g>
	<rect x="192" y="112" style="fill:#7D828C;" width="288" height="16"/>
	<path style="fill:#7D828C;" d="M240.8,243.2L163.2,72H120V56h48c3.2,0,5.6,1.6,7.2,4.8l80,176L240.8,243.2z"/>
</g>
<polygon style="fill:#656A73;" points="352,288 144,288 144,216 320,216 352,264 "/>
<g>
	<path style="fill:#BF7D2C;" d="M56,336L0,280v-64c0-17.6,14.4-32,32-32l0,0v-64c0-17.6,14.4-32,32-32h80v184"/>
	<polygon style="fill:#BF7D2C;" points="184,280 200,264 296,264 312,280 312,344 184,344 	"/>
</g>
<g>
	<circle style="fill:#7D828C;" cx="128" cy="344" r="80"/>
	<circle style="fill:#7D828C;" cx="368" cy="344" r="80"/>
</g>
<g>
	<circle style="fill:#A4A5A6;" cx="128" cy="344" r="48"/>
	<circle style="fill:#A4A5A6;" cx="368" cy="344" r="48"/>
</g>
<rect x="88" y="208" style="fill:#A6A6A6;" width="32" height="16"/>
<rect x="240" y="264" style="fill:#DFA738;" width="16" height="80"/>
<g>
	<rect x="32" y="120" style="fill:#A6A6A6;" width="80" height="64"/>
	<polygon style="fill:#A6A6A6;" points="32,312 32,216 0,216 0,280 	"/>
</g>
<g>
</g>
<g>
</g>
<g>
</g>
<g>
</g>
<g>
</g>
<g>
</g>
<g>
</g>
<g>
</g>
<g>
</g>
<g>
</g>
<g>
</g>
<g>
</g>
<g>
</g>
<g>
</g>
<g>
</g>
</svg>
